<svg xmlns="http://www.w3.org/2000/svg" width="124" height="37" viewBox="0 0 124 37" fill="none">
  <path d="M18.4152 0.948242C18.4152 0.948242 18.4008 0.948242 18.3936 0.948242C18.3864 0.948242 18.3792 0.948242 18.372 0.948242C8.77528 0.962641 1 8.74516 1 18.3491C1 27.953 8.78968 35.7427 18.3936 35.7499C28.0047 35.7499 35.7944 27.9602 35.7944 18.3491C35.7944 8.73796 28.0191 0.962641 18.4224 0.948242H18.4152ZM18.3936 34.9075C15.6938 34.9075 13.1885 33.1293 11.3382 30.1344C9.48802 27.1395 8.32893 22.9638 8.32893 18.3419C8.32893 13.7199 9.48802 9.54428 11.3382 6.55655C13.1813 3.56883 15.6722 1.79059 18.3576 1.78339C18.372 1.78339 18.3792 1.78339 18.3936 1.78339C18.408 1.78339 18.4152 1.78339 18.4296 1.78339C21.1149 1.79779 23.6059 3.57603 25.4489 6.55655C27.2992 9.55148 28.4583 13.7271 28.4583 18.3419C28.4583 22.9638 27.2992 27.1395 25.4489 30.1344C23.5987 33.1365 21.0933 34.9147 18.3936 34.9075ZM10.6255 6.1174C8.68169 9.27071 7.4938 13.5831 7.4938 18.3419C7.4938 23.1006 8.68169 27.413 10.6255 30.5663C11.331 31.7038 12.1374 32.6973 13.0301 33.4965C11.5254 32.6685 10.1648 31.5095 9.01286 30.084C6.59388 27.0963 5.08202 22.935 5.08202 18.3419C5.08202 13.7415 6.58668 9.58747 9.01286 6.59975C10.172 5.16708 11.5326 4.00799 13.0373 3.18727C12.1446 3.9864 11.3382 4.97991 10.6327 6.1174H10.6255ZM26.1617 30.5735C28.1055 27.4202 29.2934 23.1078 29.2934 18.3491C29.2934 13.5903 28.1055 9.27788 26.1617 6.12457C25.4561 4.98707 24.6498 3.9936 23.7571 3.19448C25.2618 4.0224 26.6224 5.18149 27.7743 6.60695C30.1933 9.59468 31.7052 13.7559 31.7052 18.3491C31.7052 22.9422 30.1933 27.1035 27.7743 30.0912C26.6152 31.5167 25.2546 32.6757 23.7571 33.5037C24.6498 32.7045 25.4561 31.711 26.1617 30.5735ZM1.82792 18.3419C1.82792 13.7631 3.68535 9.63065 6.68028 6.62853C7.91856 5.39024 9.35843 4.34636 10.9351 3.54724C9.99197 4.26717 9.12805 5.10949 8.35772 6.067C5.80916 9.22031 4.2397 13.5543 4.2397 18.3347C4.2397 23.115 5.80196 27.449 8.35772 30.6023C9.13525 31.5598 9.99917 32.4094 10.9423 33.1293C9.35843 32.3302 7.91856 31.2863 6.68028 30.048C3.68535 27.0459 1.82792 22.9134 1.82792 18.3347V18.3419ZM30.1069 30.0552C28.8686 31.2935 27.4288 32.3374 25.8449 33.1365C26.788 32.4166 27.6591 31.567 28.4295 30.6095C30.978 27.4562 32.5475 23.1222 32.5475 18.3419C32.5475 13.5615 30.9852 9.22752 28.4295 6.07421C27.6591 5.1167 26.788 4.27438 25.8521 3.55444C27.4288 4.35357 28.8686 5.39024 30.1069 6.62853C33.109 9.63065 34.9593 13.7631 34.9593 18.3419C34.9593 22.9206 33.109 27.0531 30.1069 30.0552Z" fill="#B8BCC0"/>
  <path d="M16.1549 12.194V16.1032H12.26V16.1176C11.9144 16.0168 10.8201 15.664 10.705 15.4481C10.8705 15.8224 10.9569 16.8375 10.9713 18.0614H18.1131V10.9197C16.8892 10.9053 15.8741 10.8261 15.4997 10.6533C15.7085 10.7613 16.0541 11.834 16.1621 12.194M26.0827 15.4481C25.9747 15.664 24.8948 16.0096 24.5421 16.1104L20.6328 16.1032V12.194H20.6256C20.7336 11.8412 21.0792 10.7613 21.2952 10.6533C20.9208 10.8261 19.9057 10.9053 18.6818 10.9197V18.0614H25.8236C25.838 16.8375 25.9172 15.8296 26.0827 15.4481ZM10.6978 21.2435C10.8129 21.0275 11.9 20.682 12.2528 20.5812L16.1477 20.5884V24.4904H16.1549C16.0541 24.836 15.7013 25.9303 15.4925 26.0383C15.8669 25.8727 16.882 25.7863 18.1059 25.7719V18.6302H10.9641C10.9497 19.854 10.8633 20.8692 10.6978 21.2435ZM25.8164 18.6302H18.6746V25.7719C19.8985 25.7863 20.9136 25.8655 21.288 26.0383C21.072 25.9303 20.7192 24.8288 20.6184 24.4904H20.6328V20.5884H24.5421C24.902 20.6892 25.9747 21.0347 26.0827 21.2435C25.9172 20.8692 25.8308 19.854 25.8164 18.6302Z" fill="#B8BCC0"/>
  <path d="M51.8491 12.7121L51.0284 13.7416L47.3279 11.6539L42.9508 13.864L42.1948 12.7913L48.667 9.32125H42.7852V8.0542H51.3668V9.12689L48.5734 10.8979L51.8491 12.7121ZM55.0168 19.4363H43.0371V15.0303H55.0168V19.4363ZM53.5914 16.2974H44.4626V18.1765H53.5914V16.2974ZM56.9103 8.0542V9.32125H55.0024V13.6337H53.577V8.06136H56.9103V8.0542Z" fill="#B8BCC0"/>
  <path d="M58.1626 13.1511H67.4425V14.411H63.3965V17.226H61.9566V14.411H58.1626V13.1511ZM70.8406 19.4362H59.0769V16.974C59.0769 16.65 59.0625 16.3764 59.0409 16.1605C59.0193 15.9445 58.8969 15.8005 58.6665 15.7285L58.7385 15.5053H60.8192L60.8911 15.7285C60.7184 15.8005 60.6104 15.9445 60.5744 16.1461C60.5312 16.3549 60.5168 16.6213 60.5168 16.9596V18.1763H69.4152V16.6933H65.0524V15.4262H69.4152V9.5227C69.4152 9.19873 69.408 8.92515 69.3864 8.70917C69.3648 8.49319 69.2424 8.34922 69.0048 8.27722L69.0768 8.05405H71.143L71.215 8.27722C71.0422 8.34922 70.9342 8.49317 70.8982 8.69475C70.855 8.90354 70.8406 9.16991 70.8406 9.50828V19.4434V19.4362ZM65.5347 10.1706C65.5347 10.5306 65.4555 10.869 65.2971 11.1857C65.1388 11.5025 64.93 11.7761 64.6708 12.0065C64.4044 12.2513 64.1021 12.4384 63.7493 12.5752C63.3965 12.712 63.015 12.7768 62.6118 12.7768C62.2086 12.7768 61.8271 12.7048 61.4743 12.5752C61.1215 12.4384 60.812 12.2513 60.5528 12.0065C60.2864 11.7761 60.0776 11.5025 59.9192 11.1857C59.7609 10.869 59.6889 10.5306 59.6889 10.1706C59.6889 9.81064 59.7681 9.4795 59.9192 9.16273C60.0776 8.84596 60.2864 8.57237 60.5528 8.34199C60.8192 8.09722 61.1215 7.91005 61.4743 7.77326C61.8271 7.63647 62.2086 7.56445 62.6118 7.56445C63.015 7.56445 63.3965 7.63647 63.7493 7.77326C64.1021 7.91005 64.4116 8.09722 64.6708 8.34199C64.93 8.57237 65.146 8.84596 65.2971 9.16273C65.4555 9.4795 65.5347 9.81784 65.5347 10.1706ZM64.1093 10.185C64.1093 9.81786 63.9653 9.50108 63.6701 9.2347C63.3749 8.96833 63.0221 8.83875 62.6046 8.83875C62.187 8.83875 61.8415 8.96833 61.5463 9.2347C61.2511 9.50108 61.1071 9.81786 61.1071 10.185C61.1071 10.5522 61.2511 10.869 61.5463 11.1353C61.8415 11.4017 62.1942 11.5313 62.6046 11.5313C63.0149 11.5313 63.3749 11.4017 63.6701 11.1353C63.9653 10.869 64.1093 10.5594 64.1093 10.185Z" fill="#B8BCC0"/>
  <path d="M86.2835 11.9562H80.8696V13.1081H86.7371V14.368H73.6055V13.1081H79.4297V11.9562H74.0806V8.0542H86.2835V9.32125H75.5061V10.6963H86.2835V11.9562ZM83.3462 18.0972C83.3462 18.5364 83.2598 18.954 83.0942 19.3571C82.9286 19.7531 82.6982 20.0987 82.4031 20.3938C82.1223 20.689 81.7839 20.8978 81.4024 21.0274C81.0208 21.157 80.6104 21.2146 80.1785 21.2146C79.7465 21.2146 79.3361 21.1498 78.9474 21.0274C78.5586 20.8978 78.2274 20.689 77.9467 20.3938C77.6515 20.0987 77.4283 19.7531 77.2555 19.3571C77.0899 18.9612 77.0036 18.5436 77.0036 18.0972C77.0036 17.6509 77.0827 17.2333 77.2555 16.8374C77.4211 16.4414 77.6515 16.0958 77.9467 15.8006C78.2274 15.5055 78.5658 15.2967 78.9474 15.1671C79.3289 15.0375 79.7393 14.98 80.1785 14.98C80.6176 14.98 81.0208 15.0447 81.4024 15.1671C81.7839 15.2895 82.1223 15.5055 82.4031 15.8006C82.6982 16.0958 82.9286 16.4414 83.0942 16.8374C83.2598 17.2333 83.3462 17.6509 83.3462 18.0972ZM81.8919 18.0972C81.8919 17.5573 81.7191 17.1182 81.3808 16.7798C81.0424 16.4342 80.6392 16.2686 80.1785 16.2686C79.7177 16.2686 79.3145 16.4414 78.969 16.7798C78.6306 17.1254 78.465 17.5573 78.465 18.0972C78.465 18.6372 78.6306 19.0764 78.969 19.4147C79.3073 19.7531 79.7105 19.9259 80.1785 19.9259C80.6464 19.9259 81.0424 19.7531 81.3808 19.4147C81.7191 19.0692 81.8919 18.63 81.8919 18.0972Z" fill="#B8BCC0"/>
  <path d="M97.6081 10.1707L93.7997 14.2312L92.8638 13.3313L97.8961 7.62939L99.0336 8.4645L98.5009 9.14124L102.504 13.3097L101.561 14.26L97.6081 10.1707ZM104.973 17.9533C104.973 18.3924 104.887 18.81 104.721 19.2059C104.555 19.6019 104.325 19.9475 104.03 20.2426C103.742 20.5378 103.411 20.7754 103.029 20.9482C102.648 21.121 102.237 21.2073 101.798 21.2073C101.359 21.2073 100.956 21.121 100.574 20.9482C100.193 20.7754 99.8543 20.5378 99.5736 20.2426C99.2856 19.9475 99.048 19.6019 98.8824 19.2059C98.7168 18.81 98.6376 18.3924 98.6376 17.9533C98.6376 17.5141 98.7168 17.0893 98.8824 16.7005C99.048 16.3046 99.2784 15.959 99.5736 15.6638C99.8615 15.3687 100.193 15.1311 100.574 14.9583C100.956 14.7855 101.366 14.6991 101.798 14.6991C102.23 14.6991 102.64 14.7855 103.029 14.9583C103.411 15.1311 103.742 15.3687 104.03 15.6638C104.325 15.959 104.555 16.3046 104.721 16.7005C104.887 17.0965 104.973 17.5141 104.973 17.9533ZM103.519 17.9533C103.519 17.4133 103.346 16.9525 103.008 16.5638C102.669 16.175 102.266 15.9806 101.798 15.9806C101.33 15.9806 100.934 16.175 100.596 16.5638C100.257 16.9525 100.085 17.4133 100.085 17.9533C100.085 18.4932 100.257 18.954 100.596 19.3427C100.934 19.7315 101.337 19.9259 101.798 19.9259C102.259 19.9259 102.669 19.7315 103.008 19.3427C103.346 18.954 103.519 18.4932 103.519 17.9533ZM104.613 14.5768V9.31406H101.762V8.05417H106.039V14.5768H104.613Z" fill="#B8BCC0"/>
  <path d="M108.673 13.9719V8.04688H116.679V9.30676H110.099V12.7048H119.667V8.04688H123V9.30676H121.092V13.9647H108.673V13.9719ZM120.027 17.9532C120.027 18.3923 119.94 18.8171 119.775 19.2131C119.609 19.609 119.379 19.9545 119.084 20.2497C118.803 20.5449 118.464 20.7825 118.083 20.9481C117.701 21.1209 117.291 21.2072 116.859 21.2072C116.427 21.2072 116.017 21.1209 115.635 20.9481C115.246 20.7753 114.915 20.5377 114.634 20.2497C114.339 19.9545 114.109 19.609 113.943 19.2131C113.778 18.8171 113.691 18.3995 113.691 17.9532C113.691 17.5068 113.778 17.0892 113.943 16.7004C114.109 16.3045 114.339 15.9589 114.634 15.6637C114.915 15.3686 115.254 15.131 115.635 14.9582C116.017 14.7854 116.427 14.6991 116.859 14.6991C117.291 14.6991 117.701 14.7854 118.083 14.9582C118.464 15.131 118.803 15.3686 119.084 15.6637C119.379 15.9589 119.609 16.3045 119.775 16.7004C119.94 17.0964 120.027 17.514 120.027 17.9532ZM118.572 17.9532C118.572 17.4132 118.407 16.9524 118.061 16.5637C117.723 16.1749 117.32 15.9805 116.859 15.9805C116.398 15.9805 115.995 16.1749 115.657 16.5637C115.318 16.9524 115.146 17.4132 115.146 17.9532C115.146 18.4931 115.311 18.9539 115.657 19.3426C115.995 19.7314 116.398 19.9258 116.859 19.9258C117.32 19.9258 117.723 19.7314 118.061 19.3426C118.4 18.9539 118.572 18.4859 118.572 17.9532Z" fill="#B8BCC0"/>
  <path d="M44.7502 27.3916C44.7502 27.4852 44.743 27.6076 44.7214 27.7516C44.707 27.8956 44.6422 28.0251 44.5414 28.1331C44.4118 28.2771 44.2102 28.3635 43.9511 28.4067C43.7423 28.4067 43.5551 28.3707 43.3823 28.2988V27.802L43.4399 27.7804C43.5407 27.946 43.6847 28.0252 43.8791 28.0252C44.0663 28.0252 44.1886 27.9316 44.2462 27.7444C44.275 27.6724 44.2822 27.5068 44.2822 27.2476V25.3326C44.2822 25.2318 44.2822 25.1526 44.275 25.0806C44.2678 25.0158 44.2246 24.9726 44.1527 24.951L44.1743 24.8862H44.743V27.406L44.7502 27.3916Z" fill="#B8BCC0"/>
  <path d="M45.6934 28.3134C45.7798 28.2415 45.8589 28.1119 45.9453 27.9319L47.2484 24.8794H47.45L48.7459 27.9031C48.8323 28.1047 48.9187 28.2414 49.0051 28.3062L48.9763 28.3711H48.3931L48.3499 28.3351C48.3787 28.2703 48.3499 28.1479 48.2707 27.9679L48.0331 27.4135H46.6725L46.4493 27.9463C46.3773 28.1119 46.3485 28.2415 46.3701 28.3351L46.3269 28.3711H45.7294L45.6934 28.3207V28.3134ZM46.8165 27.0248H47.8748L47.3492 25.7289L46.8237 27.0248H46.8165Z" fill="#B8BCC0"/>
  <path d="M51.6763 28.421H51.5755L50.6108 26.1531L50.2148 27.9098C50.1644 28.0898 50.1572 28.2338 50.2004 28.3274L50.1428 28.3706H49.6101L49.5669 28.3202C49.6389 28.2338 49.6965 28.0898 49.7469 27.8882L50.4452 24.8213H50.5676L51.6331 27.4274L52.677 24.8213H52.8066L53.5121 27.9026C53.5625 28.097 53.6201 28.2266 53.6993 28.3057L53.6633 28.3706H53.0802L53.0298 28.3274C53.073 28.2554 53.0802 28.1186 53.0442 27.9242L52.641 26.1604L51.6835 28.421H51.6763Z" fill="#B8BCC0"/>
  <path d="M56.3772 24.8716C56.3988 24.9724 56.4276 25.0948 56.4708 25.2243L57.3131 27.3265L58.1843 25.2675C58.249 25.1164 58.285 24.9796 58.2922 24.8716H58.9186L58.9546 24.9291C58.8466 25.0155 58.753 25.1379 58.6738 25.3035L57.3491 28.4136H57.2627L56.6076 26.8586L55.9453 28.4136H55.8589L54.5558 25.3324C54.4694 25.1236 54.3686 24.9868 54.2534 24.922L54.2894 24.8716H54.9302C54.9302 24.9724 54.9662 25.1019 55.0237 25.2531L55.9021 27.3337L56.3556 26.2683L55.9885 25.2675C55.9093 25.1164 55.8085 25.0084 55.7005 24.9436L55.7437 24.8716H56.37H56.3772Z" fill="#B8BCC0"/>
  <path d="M63.4541 26.6282C63.4541 26.873 63.4037 27.1106 63.3029 27.3337C63.2021 27.5569 63.0725 27.7441 62.907 27.9097C62.7342 28.0753 62.5398 28.2049 62.3094 28.2985C62.0862 28.3921 61.8415 28.4424 61.5823 28.4424C61.3231 28.4424 61.0855 28.3921 60.8551 28.2985C60.6248 28.2049 60.4304 28.0753 60.2576 27.9097C60.092 27.7441 59.9624 27.5497 59.8616 27.3337C59.7608 27.1106 59.7104 26.8802 59.7104 26.6282C59.7104 26.3762 59.7608 26.1458 59.8616 25.9226C59.9624 25.6995 60.092 25.5123 60.2576 25.3467C60.4304 25.1811 60.6248 25.0516 60.8551 24.958C61.0783 24.8644 61.3231 24.814 61.5823 24.814C61.8415 24.814 62.079 24.8644 62.3094 24.958C62.5326 25.0516 62.7342 25.1811 62.907 25.3467C63.0725 25.5123 63.2021 25.7067 63.3029 25.9226C63.4037 26.1458 63.4541 26.3762 63.4541 26.6282ZM62.9861 26.6282C62.9861 26.4338 62.9502 26.2538 62.871 26.0811C62.799 25.9083 62.6982 25.7571 62.5686 25.6275C62.439 25.4979 62.295 25.3971 62.1222 25.3179C61.9494 25.2387 61.7695 25.2027 61.5751 25.2027C61.3807 25.2027 61.1935 25.2387 61.0279 25.3179C60.8551 25.3899 60.704 25.4979 60.5816 25.6275C60.452 25.7571 60.3512 25.9083 60.2792 26.0811C60.2072 26.2538 60.164 26.4338 60.164 26.6282C60.164 26.8226 60.2 27.0026 60.2792 27.1754C60.3512 27.3482 60.452 27.4993 60.5816 27.6289C60.7112 27.7585 60.8551 27.8593 61.0279 27.9385C61.2007 28.0177 61.3807 28.0537 61.5751 28.0537C61.7695 28.0537 61.9494 28.0177 62.1222 27.9385C62.295 27.8593 62.4462 27.7585 62.5686 27.6289C62.6982 27.4993 62.799 27.3482 62.871 27.1754C62.943 27.0026 62.9861 26.8226 62.9861 26.6282Z" fill="#B8BCC0"/>
  <path d="M67.1262 28.421H67.0182L65.1032 25.9588V27.917C65.1032 28.0178 65.1032 28.1042 65.1248 28.169C65.1392 28.2337 65.168 28.277 65.2256 28.2986L65.204 28.3634H64.5416L64.52 28.2986C64.5992 28.277 64.6352 28.2337 64.6424 28.169C64.6424 28.1042 64.6496 28.0178 64.6496 27.917V24.8213H64.7576L66.6726 27.2762V25.3253C66.6726 25.2245 66.6726 25.1452 66.6654 25.0732C66.6654 25.0085 66.615 24.9653 66.543 24.9365L66.5646 24.8717H67.227L67.2486 24.9365C67.191 24.9581 67.1622 25.0012 67.1478 25.066C67.1334 25.1308 67.1262 25.2101 67.1262 25.318V28.4138V28.421Z" fill="#B8BCC0"/>
  <path d="M72.9072 25.6207C72.8568 25.5127 72.756 25.4191 72.612 25.3327C72.4608 25.2463 72.2808 25.2031 72.0576 25.2031C71.8345 25.2031 71.6545 25.2391 71.4889 25.3039C71.3161 25.3759 71.1721 25.4695 71.0569 25.5919C70.9417 25.7071 70.8481 25.851 70.7834 26.0166C70.7186 26.1822 70.6898 26.355 70.6898 26.5494C70.6898 26.7869 70.7258 26.9885 70.7978 27.1685C70.8697 27.3485 70.9705 27.4925 71.1001 27.6149C71.2297 27.7373 71.3737 27.8309 71.5465 27.8885C71.7121 27.9461 71.8992 27.9821 72.0864 27.9821C72.1296 27.9821 72.18 27.9821 72.2376 27.9749C72.2952 27.9749 72.36 27.9533 72.432 27.9317C72.4968 27.9101 72.5688 27.8741 72.6336 27.8309C72.7056 27.7877 72.7704 27.7301 72.8352 27.6581L72.8928 27.6869V28.3996L72.8496 28.4212L72.7704 28.3564C72.6696 28.3852 72.5688 28.3996 72.4536 28.4068C72.3384 28.414 72.2448 28.4212 72.1512 28.4212C71.928 28.4212 71.7049 28.3924 71.4817 28.3348C71.2585 28.2772 71.0497 28.1764 70.8625 28.0325C70.6754 27.8885 70.5242 27.7013 70.409 27.4565C70.2866 27.2189 70.229 26.9165 70.229 26.5566C70.229 26.319 70.2722 26.0886 70.3514 25.8727C70.4378 25.6639 70.553 25.4767 70.7186 25.3183C70.8769 25.1599 71.0713 25.0375 71.2945 24.9439C71.5249 24.8503 71.7841 24.8071 72.072 24.8071C72.2376 24.8071 72.3816 24.8215 72.504 24.8431C72.6264 24.8647 72.72 24.8863 72.792 24.9079L72.9144 24.8071L72.9719 24.8215V25.5919L72.9072 25.6135V25.6207Z" fill="#B8BCC0"/>
  <path d="M73.7637 28.3134C73.8501 28.2415 73.9293 28.1119 74.0156 27.9319L75.3187 24.8794H75.5203L76.8162 27.9031C76.9026 28.1047 76.989 28.2414 77.0754 28.3062L77.0466 28.3711H76.4634L76.4202 28.3351C76.449 28.2703 76.4202 28.1479 76.341 27.9679L76.1035 27.4135H74.7428L74.5196 27.9463C74.4476 28.1119 74.4188 28.2415 74.4404 28.3351L74.3972 28.3711H73.7997L73.7637 28.3207V28.3134ZM74.894 27.0248H75.9523L75.4267 25.7289L74.9012 27.0248H74.894Z" fill="#B8BCC0"/>
  <path d="M78.9618 25.2606V27.9172C78.9618 28.018 78.969 28.1043 78.9834 28.1691C78.9978 28.2339 79.0338 28.2772 79.0842 28.2988L79.0626 28.3635H78.4002L78.3786 28.2988C78.4506 28.2772 78.4938 28.2339 78.501 28.1691C78.5082 28.1043 78.5082 28.018 78.5082 27.9172V25.2678H78.1699C78.0619 25.2678 77.9827 25.275 77.9179 25.2894C77.8531 25.3038 77.8099 25.3398 77.7883 25.3902L77.7163 25.3686V24.8862H79.7609V25.3686L79.6961 25.3902C79.6745 25.3326 79.6313 25.3038 79.5665 25.2894C79.5017 25.275 79.4225 25.2678 79.3146 25.2678H78.9762L78.9618 25.2606Z" fill="#B8BCC0"/>
  <path d="M82.842 26.729H81.2438V27.9169C81.2438 28.0177 81.2438 28.1041 81.2654 28.1688C81.2798 28.2336 81.3158 28.2769 81.3662 28.2985L81.3446 28.3632H80.6822L80.6606 28.2985C80.7326 28.2769 80.7758 28.2337 80.783 28.1617C80.783 28.0969 80.7902 28.0105 80.7902 27.9097V25.3179C80.7902 25.2171 80.7902 25.1379 80.783 25.0659C80.783 25.0011 80.7326 24.9579 80.6606 24.9364L80.6822 24.8716H81.3446L81.3662 24.9364C81.3086 24.9579 81.2798 25.0011 81.2654 25.0659C81.251 25.1307 81.2438 25.2099 81.2438 25.3179V26.3402H82.842V25.3179C82.842 25.2171 82.842 25.1379 82.8348 25.0659C82.8276 25.0011 82.7845 24.9579 82.7125 24.9364L82.7341 24.8716H83.3964L83.418 24.9364C83.3604 24.9579 83.3316 25.0011 83.3172 25.0659C83.3028 25.1307 83.2956 25.2099 83.2956 25.3179V27.9169C83.2956 28.0177 83.2956 28.1041 83.3172 28.1688C83.3316 28.2336 83.3676 28.2769 83.418 28.2985L83.3964 28.3632H82.7341L82.7125 28.2985C82.7845 28.2769 82.8276 28.2337 82.8348 28.1617C82.8348 28.0969 82.842 28.0105 82.842 27.9097V26.729Z" fill="#B8BCC0"/>
  <path d="M88.2127 26.6282C88.2127 26.873 88.1623 27.1106 88.0615 27.3337C87.9607 27.5569 87.8311 27.7441 87.6655 27.9097C87.4999 28.0753 87.2983 28.2049 87.0752 28.2985C86.852 28.3921 86.6072 28.4424 86.348 28.4424C86.0888 28.4424 85.8513 28.3921 85.6209 28.2985C85.3977 28.2049 85.1961 28.0753 85.0306 27.9097C84.865 27.7441 84.7354 27.5497 84.6346 27.3337C84.5338 27.1106 84.4834 26.8802 84.4834 26.6282C84.4834 26.3762 84.5338 26.1458 84.6346 25.9226C84.7354 25.6995 84.865 25.5123 85.0306 25.3467C85.2033 25.1811 85.3977 25.0516 85.6209 24.958C85.8513 24.8644 86.0888 24.814 86.348 24.814C86.6072 24.814 86.8448 24.8644 87.0752 24.958C87.2983 25.0516 87.4999 25.1811 87.6655 25.3467C87.8311 25.5123 87.9679 25.7067 88.0615 25.9226C88.1623 26.1458 88.2127 26.3762 88.2127 26.6282ZM87.7447 26.6282C87.7447 26.4338 87.7087 26.2538 87.6295 26.0811C87.5575 25.9083 87.4567 25.7571 87.3271 25.6275C87.1975 25.4979 87.0464 25.3971 86.8808 25.3179C86.708 25.2387 86.528 25.2027 86.3336 25.2027C86.1393 25.2027 85.9521 25.2387 85.7865 25.3179C85.6137 25.3899 85.4625 25.4979 85.3401 25.6275C85.2105 25.7571 85.1097 25.9083 85.0378 26.0811C84.9658 26.2538 84.9226 26.4338 84.9226 26.6282C84.9226 26.8226 84.9586 27.0026 85.0378 27.1754C85.1097 27.3482 85.2105 27.4993 85.3401 27.6289C85.4697 27.7585 85.6137 27.8593 85.7865 27.9385C85.9593 28.0177 86.1393 28.0537 86.3336 28.0537C86.528 28.0537 86.708 28.0177 86.8808 27.9385C87.0536 27.8593 87.2047 27.7585 87.3271 27.6289C87.4567 27.4993 87.5575 27.3482 87.6295 27.1754C87.7015 27.0026 87.7447 26.8226 87.7447 26.6282Z" fill="#B8BCC0"/>
  <path d="M91.8053 28.3632H89.2999L89.2783 28.2913C89.3503 28.2697 89.3935 28.2265 89.4007 28.1545C89.4007 28.0969 89.4079 28.0177 89.4079 27.9169V25.3179C89.4079 25.2171 89.4079 25.1379 89.4007 25.0659C89.4007 25.0011 89.3503 24.9579 89.2783 24.9364L89.2999 24.8716H89.9623L89.9839 24.9364C89.9263 24.9579 89.8975 25.0011 89.8831 25.0659C89.8687 25.1307 89.8615 25.2099 89.8615 25.3179V27.9745H91.3517C91.4525 27.9745 91.5389 27.9745 91.6037 27.9673C91.6685 27.9673 91.7189 27.9241 91.7405 27.8449L91.8053 27.8665V28.356V28.3632Z" fill="#B8BCC0"/>
  <path d="M92.885 25.3257C92.885 25.225 92.885 25.1457 92.8778 25.0737C92.8706 25.009 92.8274 24.9658 92.7554 24.9442L92.777 24.8794H93.4393L93.4609 24.9442C93.4033 24.9658 93.3745 25.009 93.3601 25.0737C93.3457 25.1385 93.3385 25.2178 93.3385 25.3185V27.9175C93.3385 28.0183 93.3385 28.1047 93.3601 28.1695C93.3745 28.2342 93.4105 28.2775 93.4609 28.2991L93.4393 28.3711H92.777L92.7554 28.2991C92.8274 28.2775 92.8706 28.2342 92.8778 28.1695C92.8778 28.1047 92.885 28.0183 92.885 27.9175V25.3257Z" fill="#B8BCC0"/>
  <path d="M97.1978 25.6207C97.1474 25.5127 97.0466 25.4191 96.9026 25.3327C96.7587 25.2463 96.5715 25.2031 96.3483 25.2031C96.1251 25.2031 95.9451 25.2391 95.7795 25.3039C95.6068 25.3759 95.4628 25.4695 95.3476 25.5919C95.2324 25.7071 95.1388 25.851 95.074 26.0166C95.0092 26.1822 94.9804 26.355 94.9804 26.5494C94.9804 26.7869 95.0164 26.9885 95.0884 27.1685C95.1604 27.3485 95.2612 27.4925 95.3908 27.6149C95.5204 27.7373 95.6644 27.8309 95.8371 27.8885C96.0099 27.9461 96.1899 27.9821 96.3843 27.9821C96.4275 27.9821 96.4779 27.9821 96.5355 27.9749C96.5931 27.9749 96.6579 27.9533 96.7299 27.9317C96.7947 27.9101 96.8666 27.8741 96.9314 27.8309C96.9962 27.7877 97.0682 27.7301 97.133 27.6581L97.1834 27.6869V28.3996L97.1474 28.4212L97.0682 28.3564C96.9674 28.3852 96.8666 28.3996 96.7515 28.4068C96.6363 28.414 96.5427 28.4212 96.4491 28.4212C96.2259 28.4212 96.0027 28.3924 95.7795 28.3348C95.5564 28.2772 95.3476 28.1764 95.1604 28.0325C94.9732 27.8885 94.822 27.7013 94.7068 27.4565C94.5845 27.2189 94.5269 26.9165 94.5269 26.5566C94.5269 26.319 94.5701 26.0886 94.6492 25.8727C94.7356 25.6639 94.8508 25.4767 95.0164 25.3183C95.1748 25.1599 95.3692 25.0375 95.5924 24.9439C95.8227 24.8503 96.0819 24.8071 96.3699 24.8071C96.5355 24.8071 96.6795 24.8215 96.8018 24.8431C96.9242 24.8647 97.0178 24.8863 97.0898 24.9079L97.2122 24.8071L97.2698 24.8215V25.5919L97.205 25.6135L97.1978 25.6207Z" fill="#B8BCC0"/>
  <path d="M102.842 25.6207C102.791 25.5127 102.691 25.4191 102.547 25.3327C102.395 25.2463 102.215 25.2031 101.992 25.2031C101.769 25.2031 101.589 25.2391 101.423 25.3039C101.251 25.3759 101.107 25.4695 100.992 25.5919C100.876 25.7071 100.783 25.851 100.718 26.0166C100.653 26.1822 100.624 26.355 100.624 26.5494C100.624 26.7869 100.66 26.9885 100.732 27.1685C100.804 27.3485 100.905 27.4925 101.035 27.6149C101.164 27.7373 101.308 27.8309 101.481 27.8885C101.654 27.9461 101.834 27.9821 102.021 27.9821C102.064 27.9821 102.115 27.9821 102.172 27.9749C102.23 27.9677 102.295 27.9533 102.367 27.9317C102.431 27.9101 102.503 27.8741 102.568 27.8309C102.64 27.7877 102.705 27.7301 102.77 27.6581L102.82 27.6869V28.3996L102.784 28.4212L102.705 28.3564C102.604 28.3852 102.503 28.3996 102.388 28.4068C102.273 28.414 102.179 28.4212 102.086 28.4212C101.863 28.4212 101.639 28.3924 101.416 28.3348C101.193 28.2772 100.984 28.1764 100.797 28.0325C100.61 27.8885 100.459 27.7013 100.344 27.4565C100.221 27.2189 100.164 26.9165 100.164 26.5566C100.164 26.319 100.207 26.0886 100.286 25.8727C100.372 25.6639 100.488 25.4767 100.653 25.3183C100.812 25.1599 101.006 25.0375 101.229 24.9439C101.459 24.8503 101.719 24.8071 102.007 24.8071C102.172 24.8071 102.316 24.8215 102.439 24.8431C102.561 24.8647 102.655 24.8863 102.727 24.9079L102.849 24.8071L102.907 24.8215V25.5919L102.842 25.6135V25.6207Z" fill="#B8BCC0"/>
  <path d="M106.146 26.729H104.548V27.9169C104.548 28.0177 104.548 28.1041 104.57 28.1688C104.584 28.2336 104.613 28.2769 104.67 28.2985L104.649 28.3632H103.986L103.965 28.2985C104.037 28.2769 104.08 28.2337 104.087 28.1617C104.087 28.0969 104.094 28.0105 104.094 27.9097V25.3179C104.094 25.2171 104.094 25.1379 104.087 25.0659C104.087 25.0011 104.037 24.9579 103.965 24.9364L103.986 24.8716H104.649L104.67 24.9364C104.613 24.9579 104.584 25.0011 104.57 25.0659C104.555 25.1307 104.548 25.2099 104.548 25.3179V26.3402H106.146V25.3179C106.146 25.2171 106.146 25.1379 106.139 25.0659C106.139 25.0011 106.089 24.9579 106.017 24.9364L106.038 24.8716H106.701L106.722 24.9364C106.665 24.9579 106.636 25.0011 106.621 25.0659C106.607 25.1307 106.6 25.2099 106.6 25.3179V27.9169C106.6 28.0177 106.6 28.1041 106.621 28.1688C106.636 28.2336 106.672 28.2769 106.722 28.2985L106.701 28.3632H106.038L106.017 28.2985C106.089 28.2769 106.132 28.2337 106.139 28.1617C106.139 28.0969 106.146 28.0105 106.146 27.9097V26.729Z" fill="#B8BCC0"/>
  <path d="M109.883 25.3257C109.883 25.225 109.883 25.1457 109.876 25.0737C109.869 25.009 109.825 24.9658 109.753 24.9442L109.775 24.8794H110.437L110.459 24.9442C110.401 24.9658 110.373 25.009 110.358 25.0737C110.344 25.1385 110.337 25.2178 110.337 25.3185V27.1256C110.337 27.5287 110.25 27.8311 110.085 28.0255C109.854 28.2919 109.537 28.4287 109.149 28.4287C108.76 28.4287 108.472 28.2919 108.242 28.0111C108.047 27.7951 107.961 27.5071 107.968 27.1256V25.3257C107.968 25.225 107.968 25.1457 107.961 25.0737C107.961 25.009 107.91 24.9658 107.838 24.9442L107.86 24.8794H108.522L108.544 24.9442C108.486 24.9658 108.458 25.009 108.443 25.0737C108.429 25.1385 108.429 25.2178 108.429 25.3185V27.1256C108.422 27.4352 108.479 27.6583 108.609 27.7879C108.76 27.9535 108.94 28.0327 109.149 28.0327C109.372 28.0327 109.545 27.9463 109.681 27.7879C109.811 27.6367 109.876 27.4208 109.876 27.1328V25.3257H109.883Z" fill="#B8BCC0"/>
  <path d="M112.187 27.9171C112.187 28.0179 112.187 28.1043 112.208 28.1691C112.223 28.2339 112.259 28.2771 112.309 28.2987L112.287 28.3635H111.625L111.604 28.2987C111.676 28.2771 111.719 28.2339 111.726 28.1619C111.726 28.0971 111.733 28.0107 111.733 27.9099V25.275C111.733 25.1742 111.726 25.0878 111.712 25.023C111.697 24.9582 111.661 24.9078 111.604 24.8934L111.625 24.8286L112.028 24.879C112.079 24.8574 112.165 24.843 112.28 24.8286C112.395 24.8142 112.518 24.807 112.647 24.7998C113.007 24.7998 113.295 24.8934 113.497 25.0878C113.699 25.2822 113.807 25.5269 113.807 25.8365C113.807 26.0381 113.771 26.1965 113.699 26.3189C113.627 26.4413 113.533 26.5421 113.425 26.6141C113.727 26.794 113.965 27.0244 114.13 27.3124C114.296 27.6004 114.404 27.9027 114.454 28.2267L114.577 28.2987L114.555 28.3635H113.907C113.907 28.2123 113.893 28.0755 113.857 27.9459C113.821 27.8163 113.778 27.7011 113.727 27.6004C113.684 27.4996 113.634 27.4204 113.583 27.3628C113.533 27.298 113.504 27.2548 113.483 27.2332C113.375 27.0964 113.223 26.974 113.043 26.866C112.863 26.758 112.633 26.7076 112.374 26.7076V26.5421C113.022 26.5349 113.346 26.2973 113.339 25.8365C113.339 25.5845 113.267 25.4118 113.123 25.3254C112.979 25.239 112.791 25.1958 112.561 25.1958C112.482 25.1958 112.41 25.203 112.345 25.2246C112.28 25.2462 112.23 25.2678 112.187 25.2894V27.9171Z" fill="#B8BCC0"/>
  <path d="M118.133 25.6207C118.083 25.5127 117.982 25.4191 117.838 25.3327C117.694 25.2463 117.507 25.2031 117.284 25.2031C117.061 25.2031 116.881 25.2391 116.715 25.3039C116.542 25.3759 116.398 25.4695 116.283 25.5919C116.168 25.7071 116.074 25.851 116.009 26.0166C115.945 26.1822 115.916 26.355 115.916 26.5494C115.916 26.7869 115.952 26.9885 116.024 27.1685C116.096 27.3485 116.197 27.4925 116.326 27.6149C116.456 27.7373 116.6 27.8309 116.773 27.8885C116.938 27.9461 117.125 27.9821 117.313 27.9821C117.356 27.9821 117.406 27.9821 117.464 27.9749C117.521 27.9749 117.586 27.9533 117.658 27.9317C117.723 27.9101 117.795 27.8741 117.86 27.8309C117.932 27.7877 117.996 27.7301 118.061 27.6581L118.119 27.6869V28.3996L118.076 28.4212L117.996 28.3564C117.896 28.3852 117.795 28.3996 117.68 28.4068C117.564 28.414 117.471 28.4212 117.377 28.4212C117.154 28.4212 116.931 28.3924 116.708 28.3348C116.485 28.2772 116.276 28.1764 116.089 28.0325C115.901 27.8885 115.75 27.7013 115.635 27.4565C115.513 27.2189 115.455 26.9165 115.455 26.5566C115.455 26.319 115.498 26.0886 115.577 25.8727C115.664 25.6639 115.779 25.4767 115.945 25.3183C116.103 25.1599 116.297 25.0375 116.521 24.9439C116.751 24.8503 117.01 24.8071 117.298 24.8071C117.464 24.8071 117.608 24.8215 117.73 24.8431C117.852 24.8647 117.946 24.8863 118.018 24.9079L118.14 24.8071L118.198 24.8215V25.5919L118.133 25.6135V25.6207Z" fill="#B8BCC0"/>
  <path d="M121.43 26.729H119.832V27.9169C119.832 28.0177 119.832 28.1041 119.854 28.1688C119.868 28.2336 119.897 28.2769 119.955 28.2985L119.933 28.3632H119.271L119.249 28.2985C119.321 28.2769 119.364 28.2337 119.371 28.1617C119.371 28.0969 119.379 28.0105 119.379 27.9097V25.3179C119.379 25.2171 119.379 25.1379 119.371 25.0659C119.371 25.0011 119.321 24.9579 119.249 24.9364L119.271 24.8716H119.933L119.955 24.9364C119.897 24.9579 119.868 25.0011 119.854 25.0659C119.839 25.1307 119.832 25.2099 119.832 25.3179V26.3402H121.43V25.3179C121.43 25.2171 121.43 25.1379 121.423 25.0659C121.423 25.0011 121.373 24.9579 121.301 24.9364L121.322 24.8716H121.985L122.006 24.9364C121.949 24.9579 121.92 25.0011 121.906 25.0659C121.891 25.1307 121.884 25.2099 121.884 25.3179V27.9169C121.884 28.0177 121.884 28.1041 121.906 28.1688C121.92 28.2336 121.956 28.2769 122.006 28.2985L121.985 28.3632H121.322L121.301 28.2985C121.373 28.2769 121.416 28.2337 121.423 28.1617C121.423 28.0969 121.43 28.0105 121.43 27.9097V26.729Z" fill="#B8BCC0"/>
</svg>