<svg xmlns="http://www.w3.org/2000/svg" width="24" height="24" viewBox="0 0 24 24" fill="none">
  <path d="M21.5799 7.19C21.3499 6.33 20.6699 5.65 19.8099 5.42C18.2499 5 12 5 12 5C12 5 5.74999 5 4.18999 5.42C3.33 5.65 2.65 6.33 2.42 7.19C2 8.75 2 12 2 12C2 12 2 15.25 2.42 16.81C2.65 17.67 3.33 18.35 4.18999 18.58C5.74999 19 12 19 12 19C12 19 18.2499 19 19.8099 18.58C20.6699 18.35 21.3499 17.67 21.5799 16.81C21.9999 15.25 21.9999 12 21.9999 12C21.9999 12 21.9999 8.75 21.5799 7.19Z" fill="#FF0000"/>
  <path d="M10 15V9L15.2 12L10 15Z" fill="white"/>
</svg>