<svg
xmlns="http://www.w3.org/2000/svg"
width="24"
height="16"
viewBox="0 0 24 16"
fill="none"
>
<path
d="M18.7765 16C17.5059 16 16.4 15.5594 15.4588 14.6783C14.5647 13.7507 14.1176 12.6377 14.1176 11.3391C14.2118 9.29855 14.6824 7.72174 15.5294 6.6087C16.9412 4.1971 18.7059 1.9942 20.8235 0L22.5176 0.626087C21.2471 2.62029 20.3294 4.5913 19.7647 6.53913C20.8941 6.67826 21.8824 7.18841 22.7294 8.06957C23.5765 8.90435 24 10.0406 24 11.4783C24 12.5913 23.5294 13.6348 22.5882 14.6087C21.6471 15.5362 20.3765 16 18.7765 16ZM4.65882 16C3.38824 16 2.28235 15.5594 1.34118 14.6783C0.447059 13.7507 0 12.6377 0 11.3391C0.0941176 9.29855 0.564706 7.72174 1.41176 6.6087C2.82353 4.1971 4.58824 1.9942 6.70588 0L8.4 0.626087C7.12941 2.62029 6.21176 4.5913 5.64706 6.53913C6.77647 6.67826 7.76471 7.18841 8.61176 8.06957C9.45882 8.90435 9.88235 10.0406 9.88235 11.4783C9.88235 12.5913 9.41176 13.6348 8.47059 14.6087C7.52941 15.5362 6.25882 16 4.65882 16Z"
fill="#9FA4A9"
/>
</svg>