<svg
xmlns="http://www.w3.org/2000/svg"
width="24"
height="16"
viewBox="0 0 24 16"
fill="none"
>
<path
d="M5.22353 0C6.49412 0 7.57647 0.463768 8.47059 1.3913C9.41176 2.27246 9.88235 3.36232 9.88235 4.66087C9.78824 6.70145 9.31765 8.27826 8.47059 9.3913C7.05882 11.8029 5.29412 14.0058 3.17647 16L1.48235 15.3739C2.75294 13.3797 3.67059 11.4087 4.23529 9.46087C3.10588 9.32174 2.11765 8.83478 1.27059 8C0.423529 7.11884 0 5.95942 0 4.52174C0 3.4087 0.470588 2.38841 1.41176 1.46087C2.35294 0.486957 3.62353 0 5.22353 0ZM19.3412 0C20.6118 0 21.6941 0.463768 22.5882 1.3913C23.5294 2.27246 24 3.36232 24 4.66087C23.9059 6.70145 23.4353 8.27826 22.5882 9.3913C21.1765 11.8029 19.4118 14.0058 17.2941 16L15.6 15.3739C16.8706 13.3797 17.7882 11.4087 18.3529 9.46087C17.2235 9.32174 16.2353 8.83478 15.3882 8C14.5412 7.11884 14.1176 5.95942 14.1176 4.52174C14.1176 3.4087 14.5882 2.38841 15.5294 1.46087C16.4706 0.486957 17.7412 0 19.3412 0Z"
fill="#9FA4A9"
/>
</svg>