<svg width="20" height="20" viewBox="0 0 20 20" fill="none" xmlns="http://www.w3.org/2000/svg">
<path d="M10 2.5C14.1421 2.5 17.5 5.85786 17.5 10C17.5 14.1421 14.1421 17.5 10 17.5C5.85786 17.5 2.5 14.1421 2.5 10C2.5 5.85786 5.85786 2.5 10 2.5ZM13.6553 7.59473C13.3624 7.30183 12.8876 7.30183 12.5947 7.59473L8.75 11.4395L7.40527 10.0947C7.11238 9.80183 6.63762 9.80183 6.34473 10.0947C6.05183 10.3876 6.05183 10.8624 6.34473 11.1553L8.21973 13.0303C8.51262 13.3232 8.98738 13.3232 9.28027 13.0303L13.6553 8.65527C13.9482 8.36238 13.9482 7.88762 13.6553 7.59473Z" fill="#22A04C"/>
</svg>
