<svg width="64" height="64" viewBox="0 0 64 64" fill="none" xmlns="http://www.w3.org/2000/svg">
<mask id="mask0_14305_4609" style="mask-type:luminance" maskUnits="userSpaceOnUse" x="5" y="3" width="53" height="59">
<path d="M57.9528 3H5.97656V62H57.9528V3Z" fill="white"/>
</mask>
<g mask="url(#mask0_14305_4609)">
<path d="M27.9305 20.4894C28.0418 20.365 28.1928 20.2564 28.2574 20.1119C28.5197 19.5282 28.8298 18.9754 29.1965 18.4484C29.2919 18.312 29.3028 18.1167 29.3664 17.9035C29.9487 17.4055 30.5559 16.8258 31.2217 16.3357C31.9372 15.8088 32.6447 15.233 33.535 15.0527C33.8083 14.9979 34.0796 14.9292 34.3519 14.8664C34.3896 14.8575 34.4303 14.8525 34.4622 14.8336C35.2134 14.3854 36.0531 14.46 36.8451 14.2588C37.2247 14.1622 37.5556 14.2568 37.9123 14.2758C38.43 14.3026 38.8713 14.5338 39.3612 14.6214C39.6265 14.6692 39.8998 14.8575 40.0806 15.0646C40.2933 15.3087 40.5328 15.5139 40.7712 15.7241C40.8259 15.7719 40.8845 15.8397 40.9501 15.8466C41.2154 15.8765 41.3764 16.0349 41.4897 16.259C41.922 16.2251 42.1803 16.529 42.4685 16.7451C42.9167 17.0808 43.3072 17.4842 43.5248 18.0321C43.5298 18.044 43.5387 18.053 43.5467 18.0619C43.9978 18.5988 44.1578 19.2951 44.4331 19.9286C44.5871 20.2833 44.7392 20.6309 44.7719 21.0284C44.7759 21.0782 44.7938 21.1339 44.8246 21.1688C45.1466 21.5264 45.083 21.9338 44.8962 22.3761C45.233 22.8014 45.2767 23.3154 45.1744 23.8692C45.1565 23.9678 45.1873 24.0724 45.1952 24.175C45.2002 24.2388 45.2251 24.3085 45.2062 24.3653C44.9697 25.0476 44.7272 25.7269 44.3973 26.3744C44.2721 26.6194 44.1648 26.8744 44.0605 27.1294C43.8607 27.6165 43.494 27.9851 43.185 28.3945C42.8511 28.8368 42.545 29.3089 42.1624 29.7023C41.919 29.9534 41.759 30.2472 41.5543 30.5152C41.3347 30.8021 41.0574 30.9854 40.7653 31.1587C40.6779 31.2105 40.5675 31.2682 40.4781 31.2583C40.2128 31.2304 40.0131 31.3689 39.8064 31.5133C39.3463 31.835 38.8345 32.0203 38.3038 32.11C37.3449 32.2723 36.386 32.3331 35.431 32.2275C35.3327 32.2165 35.2273 32.2315 35.127 32.2494C34.8855 32.2932 34.6679 32.2763 34.5784 32.1458C34.0816 32.0492 33.6682 31.9745 33.2588 31.8858C33.0769 31.847 32.8862 31.8101 32.7271 31.7234C32.116 31.3888 31.4274 31.1856 30.9116 30.6845C30.8342 30.6088 30.7278 30.562 30.6314 30.5082C30.1117 30.2154 29.7003 29.8199 29.4231 29.269C29.277 28.9792 29.0971 28.6953 28.8755 28.4672C28.4969 28.0777 28.3647 27.5448 28.1014 27.0896C28.0517 27.0039 28.1074 26.8495 28.1173 26.6952C27.9583 26.5218 27.9543 26.3186 28.0895 26.0526C28.2584 25.719 28.1551 25.5526 27.7159 25.3106C27.7218 25.215 27.7308 25.1133 27.7327 25.0118C27.7348 24.9082 27.7665 24.7777 27.7198 24.7069C27.5092 24.3902 27.4773 24.0246 27.4575 23.651C27.4505 23.5126 27.4207 23.3751 27.4277 23.2367C27.4485 22.8333 27.3989 22.4607 27.0918 22.2047C27.218 21.9119 27.3909 22.152 27.5489 22.0941C27.5767 22.0384 27.6095 21.9717 27.6552 21.88C27.528 21.8411 27.4267 21.8102 27.2885 21.7685C27.7298 21.4338 27.9543 21.0104 27.9384 20.4795L27.9285 20.4894H27.9305ZM37.9819 27.9801C37.9461 28.0538 37.9104 28.1265 37.8596 28.2292C38.0644 28.2132 38.1181 28.1485 37.9819 27.9801ZM36.079 18.1008L36.0829 18.0788L36.058 18.0869L36.079 18.1008Z" fill="url(#paint0_linear_14305_4609)"/>
<path d="M10.5516 49.7008H9.29058C9.21704 49.2237 8.86129 48.9339 8.27799 48.9339C7.69467 48.9339 7.39259 49.1629 7.39259 49.4917C7.39259 49.9021 7.81491 50.0435 8.88216 50.2646C10.1432 50.5266 10.5725 51.1522 10.5725 51.973C10.5725 53.0218 9.5867 53.6604 8.36543 53.6604C7.01697 53.6604 6.0312 52.9272 5.97754 51.7578H7.23161C7.29918 52.2828 7.7553 52.6324 8.45288 52.6324C8.94974 52.6324 9.3184 52.3834 9.3184 52.0268C9.3184 51.5895 8.94974 51.4151 7.97689 51.2329C6.7894 51.0108 6.14548 50.5197 6.14548 49.4917C6.14548 48.4637 7.12528 47.9119 8.35947 47.9119C9.59367 47.9119 10.493 48.6579 10.5526 49.7008H10.5516Z" fill="#F32735"/>
<path d="M11.2881 48.0466H15.3534V49.1095H12.5094V50.226H15.1189V51.2889H12.5094V52.4653H15.414V53.5282H11.2891V48.0476L11.2881 48.0466Z" fill="#F32735"/>
<path d="M15.9111 50.7828C15.9111 49.1223 17.1652 47.905 18.8624 47.905C20.5597 47.905 21.8137 49.1223 21.8137 50.7828C21.8137 52.4433 20.5597 53.6605 18.8624 53.6605C17.1652 53.6605 15.9111 52.4433 15.9111 50.7828ZM20.5935 50.7828C20.5935 49.7468 19.8561 49.0077 18.8624 49.0077C17.8687 49.0077 17.1314 49.7478 17.1314 50.7828C17.1314 51.8177 17.8697 52.5578 18.8624 52.5578C19.8551 52.5578 20.5935 51.8117 20.5935 50.7828Z" fill="#F32735"/>
<path d="M22.4707 48.0466H23.692V51.0997C23.692 51.9742 24.1749 52.5589 24.9729 52.5589C25.7708 52.5589 26.2538 51.9742 26.2538 51.0997V48.0466H27.475V51.0997C27.475 52.6526 26.4754 53.6616 24.9729 53.6616C23.4704 53.6616 22.4707 52.6526 22.4707 51.0997V48.0466Z" fill="#F32735"/>
<path d="M29.5953 48.0466V52.4444H32.3251V53.5272H28.374V48.0466H29.5953Z" fill="#F32735"/>
<path d="M14.6554 57.8501C14.6554 58.4368 14.3732 58.9409 13.3883 59.9628L12.5825 60.7986H14.7656V61.8614H10.7501V61.1432L12.5894 59.2446C13.2642 58.5474 13.4231 58.1808 13.4231 57.864C13.4231 57.4497 13.1956 57.1738 12.652 57.1738C12.1422 57.1738 11.867 57.5881 11.867 58.0165H10.6338C10.6338 56.9118 11.4675 56.083 12.652 56.083C13.912 56.083 14.6564 56.8292 14.6564 57.8501H14.6554Z" fill="#0047BB"/>
<path d="M19.6016 59.0445C19.6016 61.0127 18.6784 61.9999 17.4522 61.9999C16.2259 61.9999 15.3027 61.0127 15.3027 59.0445C15.3027 57.0761 16.2259 56.082 17.4522 56.082C18.6784 56.082 19.6016 57.0692 19.6016 59.0445ZM16.4883 59.0445C16.4883 60.3215 16.9016 60.9022 17.4522 60.9022C18.0027 60.9022 18.416 60.3224 18.416 59.0445C18.416 57.7664 18.0027 57.1797 17.4522 57.1797C16.9016 57.1797 16.4883 57.7595 16.4883 59.0445Z" fill="#0047BB"/>
<path d="M24.0987 57.8503C24.0987 58.437 23.8165 58.941 22.8317 59.9631L22.0258 60.7988H24.209V61.8616H20.1934V61.1434L22.0328 59.2449C22.7075 58.5476 22.8665 58.1811 22.8665 57.8643C22.8665 57.4499 22.6389 57.174 22.0954 57.174C21.5856 57.174 21.3103 57.5883 21.3103 58.0167H20.0771C20.0771 56.912 20.9109 56.0833 22.0954 56.0833C23.3554 56.0833 24.0997 56.8293 24.0997 57.8503H24.0987Z" fill="#0047BB"/>
<path d="M28.5773 56.9795L26.4906 61.8614H25.1818L27.1176 57.3251H24.7207V56.2344H28.5783V56.9804L28.5773 56.9795Z" fill="#0047BB"/>
<path d="M16.6933 45.6022H14.7844L14.1524 42.7214H14.1255L13.5065 45.6022H11.6035L10.0205 40.2073H11.8499L12.6012 43.3948H12.6141L13.3395 40.2073H14.996L15.7015 43.4417H15.7284L16.4796 40.2073H18.322L16.6923 45.6022H16.6933Z" fill="#0F1822"/>
<path d="M18.6648 43.6149L16.4697 40.2073H18.5913L19.6228 42.1547H19.6357L20.7069 40.2073H22.8226L20.5876 43.6149V45.6022H18.6648V43.6149Z" fill="#0F1822"/>
<path d="M22.4141 40.2083H25.4211C27.4433 40.2083 28.1617 41.535 28.1617 42.8957C28.1617 44.5562 27.171 45.6032 25.0554 45.6032H22.4141V40.2083ZM24.2902 44.2424H24.949C26.1068 44.2424 26.2866 43.3758 26.2866 42.8758C26.2866 42.5362 26.1803 41.5689 24.8169 41.5689H24.2912V44.2424H24.2902Z" fill="#0F1822"/>
<path d="M57.6005 36.4519C57.4355 36.164 57.054 35.8682 57.0301 36.1999C57.0301 36.2019 56.8959 37.0008 56.8959 37.0028C56.7548 37.6692 56.6257 38.0228 56.3643 38.5427C55.6777 39.9124 54.8131 40.771 54.0132 40.9214C52.612 41.278 52.2046 39.7669 52.1113 38.4132C52.0615 36.439 52.2186 34.7157 52.2394 32.7743C52.2453 32.2554 52.0297 31.827 52.0297 31.827C51.664 31.1357 51.1016 30.7373 50.3881 30.6755C50.2759 30.6656 50.1526 30.6626 50.0244 30.6636C47.1754 30.8648 45.6222 32.8052 45.6222 32.8052L45.8926 31.8988C46.7054 28.5449 46.2354 26.8395 46.2016 26.6363C46.1638 26.4939 45.9233 25.8614 45.8438 25.7299C45.4911 24.955 44.6246 25.3554 44.6246 25.3554C42.6699 26.5985 42.3619 29.5101 42.3619 29.5101C42.3619 29.5101 42.3231 29.9603 42.3212 30.1576C42.3212 30.1576 42.3241 30.7612 42.3291 30.8519C42.196 30.4046 42.027 30.1695 41.869 30.2621C41.8044 30.302 41.7478 30.3946 41.7011 30.5291C41.6543 30.6636 41.6037 30.8907 41.5878 31.1049C41.5599 31.4913 41.5819 32.0003 41.5927 32.2554C41.6067 32.5084 41.6763 33.4038 41.6763 33.4038C41.6763 33.4038 41.8313 40.0906 45.8568 38.1104C46.2393 37.9222 46.5822 37.6582 46.8754 37.3474C47.1953 37.0087 47.6782 36.4968 48.1354 36.0166C48.0668 36.7298 48.0221 37.4998 48.0211 38.3236C48.0191 39.5408 47.9695 40.6804 48.2437 41.6346C48.9661 44.1507 50.9734 44.4456 51.1781 44.5034C51.8827 44.6638 52.5723 44.6518 53.2132 44.5632C54.3143 44.4098 55.1947 43.8549 55.8456 43.1796C56.4776 42.5231 56.9546 41.7253 57.2934 41.03C57.8191 39.9512 58.0576 38.7489 57.9125 37.5576C57.8439 36.9997 57.7227 36.6591 57.6034 36.4499L57.6005 36.4519Z" fill="#0F1822"/>
<path d="M23.2733 15.1542C23.2733 15.1542 21.0106 13.1979 19.4157 15.2707C19.4157 15.2707 20.0427 13.3643 18.3852 14.8434C18.3852 14.8434 17.1192 16.1184 15.8055 18.2422C14.9311 17.3636 13.4663 15.8435 12.9148 14.9809C12.9148 14.9809 11.614 13.1431 11.1987 14.8215C11.1987 14.8215 10.7654 15.5577 11.1987 16.3824C11.1987 16.3824 9.96944 17.6375 11.1987 18.9205C11.1987 18.9205 10.4176 19.3777 11.1987 19.7024C11.8068 19.9554 12.9208 20.824 14.4392 20.8141C13.5279 22.86 12.8423 25.3135 12.9277 27.986C12.9277 27.986 12.9844 29.513 13.1305 31.3419C13.1305 31.3419 13.2557 32.7334 13.6501 28.6883C13.6501 28.6883 13.8717 33.1517 14.1043 34.7834C14.1043 34.7834 14.774 36.0683 15.258 33.3639C15.258 33.3639 16.6551 20.6318 22.8867 17.4731C22.8867 17.4731 25.4515 16.1105 23.2733 15.1523V15.1542Z" fill="#0F1822"/>
<path d="M31.497 20.0082C31.497 20.0082 27.8083 22.2663 23.1826 20.8449C18.5568 19.4224 20.6586 25.7078 23.6844 26.0983C23.6844 26.0983 21.6712 27.9312 27.7944 26.7089C33.9167 25.4867 40.2586 21.4904 38.5603 13.1012C38.5603 13.1012 36.079 4.84055 35.4808 4.9551C35.0445 5.03877 35.772 6.34167 35.3725 5.99901C34.6769 5.40235 33.3413 3.18602 33.7279 5.235C34.337 8.45937 37.8876 17.1962 31.497 20.0082Z" fill="#F32735"/>
<path d="M45.8133 18.2811C47.2592 18.0172 48.4178 17.9434 47.0693 18.7613C47.0693 18.7613 55.0011 18.3409 51.5738 20.6021C51.5738 20.6021 54.4268 20.2175 53.1559 22.0703C53.1559 22.0703 52.6818 22.7656 50.0833 22.6192C49.5884 22.5913 40.3568 23.0216 38.9686 29.6984C37.2008 38.1981 37.8527 43.9995 38.6933 56.4198C38.6933 56.4198 37.8168 58.7098 37.005 51.0299C37.005 51.0299 37.1352 53.7623 36.8311 53.9286C35.9845 54.3928 35.4438 50.0736 35.0365 48.7379C35.0365 48.7379 34.3587 45.2137 34.1848 42.9635C33.3978 32.7685 33.0749 25.2538 39.2627 21.0792C41.2561 19.7344 43.4512 18.7135 45.8153 18.2811H45.8133Z" fill="#0047BB"/>
<path d="M46.341 3.73988C46.341 3.73988 48.3055 3.95704 47.0525 3.39324C45.7984 2.82945 45.4248 3.00576 44.29 3.10736C43.1551 3.20896 42.242 5.1922 42.3433 7.61471L41.9399 12.1151C41.9399 12.1151 40.6043 16.7549 45.6136 16.0906C50.3357 15.464 51.5987 13.5106 51.9933 11.384C52.3867 9.25728 50.2483 7.25811 50.2483 7.25811C50.2483 7.25811 48.9326 6.07674 50.2175 7.78803C50.2175 7.78803 49.9452 7.69141 49.7991 7.5679C48.5242 6.49211 47.0664 5.20216 49.3699 9.34494C49.3699 9.34494 50.6607 11.5842 46.4205 12.38C46.4205 12.38 45.7507 12.2785 45.8938 11.384C45.9674 10.9238 45.9644 9.75633 46.1353 8.86282C46.2635 8.19245 46.2705 7.85677 46.6739 7.65754C46.9641 7.5141 47.0018 7.45434 47.3327 7.23918C47.3714 7.21428 47.5722 6.95928 47.6567 6.774C47.8644 6.32476 48.0204 6.12355 48.1297 6.0339C48.3165 5.88051 48.7696 5.51195 48.7736 5.26989C48.7786 4.96309 48.4943 4.57163 48.1177 4.37141C47.8872 4.24889 47.607 4.00584 46.342 3.73988H46.341Z" fill="#0F1822"/>
</g>
<defs>
<linearGradient id="paint0_linear_14305_4609" x1="27.0928" y1="23.2466" x2="45.2241" y2="23.2466" gradientUnits="userSpaceOnUse">
<stop stop-color="#FFF5C4"/>
<stop offset="1" stop-color="#FBE126"/>
</linearGradient>
</defs>
</svg>
