<svg width="64" height="64" viewBox="0 0 64 64" fill="none" xmlns="http://www.w3.org/2000/svg">
<path d="M45.9995 21C46.5006 20.9973 46.9943 21.1202 47.4357 21.3574C47.8771 21.5946 48.252 21.9386 48.5263 22.358C48.8005 22.7774 48.9654 23.2588 49.0057 23.7582C49.0461 24.2577 48.9607 24.7593 48.7574 25.2173C48.554 25.6753 48.2392 26.075 47.8417 26.3801C47.4441 26.6851 46.9765 26.8857 46.4814 26.9635C45.9864 27.0413 45.4798 26.9939 45.0078 26.8256C44.5358 26.6573 44.1135 26.3734 43.7795 26H33.9995V50.78C34.4523 51.185 34.7715 51.718 34.9148 52.3084C35.0581 52.8989 35.0188 53.5189 34.802 54.0865C34.5852 54.6541 34.2012 55.1424 33.7007 55.487C33.2003 55.8315 32.607 56.016 31.9995 56.016C31.3919 56.016 30.7986 55.8315 30.2982 55.487C29.7978 55.1424 29.4137 54.6541 29.1969 54.0865C28.9802 53.5189 28.9408 52.8989 29.0841 52.3084C29.2274 51.718 29.5466 51.185 29.9995 50.78V26H20.2195C19.8144 26.4528 19.2814 26.772 18.691 26.9153C18.1005 27.0586 17.4805 27.0193 16.9129 26.8025C16.3454 26.5857 15.857 26.2017 15.5124 25.7012C15.1679 25.2008 14.9834 24.6075 14.9834 24C14.9834 23.3924 15.1679 22.7991 15.5124 22.2987C15.857 21.7983 16.3454 21.4142 16.9129 21.1974C17.4805 20.9806 18.1005 20.9413 18.691 21.0846C19.2814 21.2279 19.8144 21.5471 20.2195 22H29.9995V13.22C29.5466 12.8149 29.2274 12.2819 29.0841 11.6915C28.9408 11.101 28.9802 10.481 29.1969 9.91342C29.4137 9.34584 29.7978 8.85746 30.2982 8.51292C30.7986 8.16837 31.3919 7.98389 31.9995 7.98389C32.607 7.98389 33.2003 8.16837 33.7007 8.51292C34.2012 8.85746 34.5852 9.34584 34.802 9.91342C35.0188 10.481 35.0581 11.101 34.9148 11.6915C34.7715 12.2819 34.4523 12.8149 33.9995 13.22V22H43.7795C44.0578 21.6859 44.3996 21.4344 44.7823 21.262C45.1649 21.0896 45.5798 21.0003 45.9995 21Z" fill="#F7F3E1"/>
<path d="M55.9999 23.9999C55.9997 22.8458 55.6002 21.7274 54.8693 20.8343C54.1384 19.9412 53.1211 19.3284 51.9899 19.0999C51.9899 19.0699 51.9999 19.0299 51.9999 18.9999C51.9999 17.6738 51.4731 16.402 50.5354 15.4644C49.5977 14.5267 48.326 13.9999 46.9999 13.9999C45.6738 13.9999 44.402 14.5267 43.4644 15.4644C42.5267 16.402 41.9999 17.6738 41.9999 18.9999H36.9999V14.9999C38.326 14.9999 39.5977 14.4731 40.5354 13.5354C41.4731 12.5977 41.9999 11.326 41.9999 9.9999C41.9999 8.67381 41.4731 7.40204 40.5354 6.46436C39.5977 5.52668 38.326 4.9999 36.9999 4.9999C36.9699 4.9999 36.9299 5.0099 36.8999 5.0099C36.6704 3.87961 36.0572 2.86342 35.1642 2.13352C34.2711 1.40361 33.1533 1.00488 31.9999 1.00488C30.8465 1.00488 29.7286 1.40361 28.8356 2.13352C27.9426 2.86342 27.3294 3.87961 27.0999 5.0099C27.0699 5.0099 27.0299 4.9999 26.9999 4.9999C25.6738 4.9999 24.402 5.52668 23.4644 6.46436C22.5267 7.40204 21.9999 8.67381 21.9999 9.9999C21.9999 11.326 22.5267 12.5977 23.4644 13.5354C24.402 14.4731 25.6738 14.9999 26.9999 14.9999V18.9999H21.9999C21.9999 17.6738 21.4731 16.402 20.5354 15.4644C19.5977 14.5267 18.326 13.9999 16.9999 13.9999C15.6738 13.9999 14.402 14.5267 13.4644 15.4644C12.5267 16.402 11.9999 17.6738 11.9999 18.9999C11.9999 19.0299 12.0099 19.0699 12.0099 19.0999C10.8796 19.3294 9.86342 19.9426 9.13352 20.8356C8.40361 21.7286 8.00488 22.8465 8.00488 23.9999C8.00488 25.1533 8.40361 26.2711 9.13352 27.1642C9.86342 28.0572 10.8796 28.6704 12.0099 28.8999C12.0099 28.9299 11.9999 28.9699 11.9999 28.9999C11.9999 30.326 12.5267 31.5977 13.4644 32.5354C14.402 33.4731 15.6738 33.9999 16.9999 33.9999C18.326 33.9999 19.5977 33.4731 20.5354 32.5354C21.4731 31.5977 21.9999 30.326 21.9999 28.9999H26.9999V48.9999C25.6738 48.9999 24.402 49.5267 23.4644 50.4644C22.5267 51.402 21.9999 52.6738 21.9999 53.9999C21.9999 55.326 22.5267 56.5977 23.4644 57.5354C24.402 58.4731 25.6738 58.9999 26.9999 58.9999C27.0299 58.9999 27.0699 58.9899 27.0999 58.9899C27.3294 60.1202 27.9426 61.1364 28.8356 61.8663C29.7286 62.5962 30.8465 62.9949 31.9999 62.9949C33.1533 62.9949 34.2711 62.5962 35.1642 61.8663C36.0572 61.1364 36.6704 60.1202 36.8999 58.9899C36.9299 58.9899 36.9699 58.9999 36.9999 58.9999C38.326 58.9999 39.5977 58.4731 40.5354 57.5354C41.4731 56.5977 41.9999 55.326 41.9999 53.9999C41.9999 52.6738 41.4731 51.402 40.5354 50.4644C39.5977 49.5267 38.326 48.9999 36.9999 48.9999V28.9999H41.9999C41.9999 30.326 42.5267 31.5977 43.4644 32.5354C44.402 33.4731 45.6738 33.9999 46.9999 33.9999C48.326 33.9999 49.5977 33.4731 50.5354 32.5354C51.4731 31.5977 51.9999 30.326 51.9999 28.9999C51.9999 28.9699 51.9899 28.9299 51.9899 28.8999C53.1211 28.6714 54.1384 28.0586 54.8693 27.1655C55.6002 26.2724 55.9997 25.154 55.9999 23.9999ZM45.9999 26.9999C45.5802 26.9995 45.1654 26.9102 44.7827 26.7378C44.4001 26.5655 44.0583 26.314 43.7799 25.9999H33.9999V50.7799C34.4528 51.1849 34.772 51.718 34.9153 52.3084C35.0586 52.8988 35.0192 53.5188 34.8024 54.0864C34.5856 54.654 34.2016 55.1424 33.7012 55.4869C33.2007 55.8315 32.6075 56.016 31.9999 56.016C31.3923 56.016 30.7991 55.8315 30.2986 55.4869C29.7982 55.1424 29.4142 54.654 29.1974 54.0864C28.9806 53.5188 28.9412 52.8988 29.0845 52.3084C29.2278 51.718 29.547 51.1849 29.9999 50.7799V25.9999H20.2199C19.8148 26.4528 19.2818 26.772 18.6914 26.9153C18.101 27.0586 17.4809 27.0192 16.9134 26.8024C16.3458 26.5856 15.8574 26.2016 15.5129 25.7012C15.1683 25.2007 14.9838 24.6075 14.9838 23.9999C14.9838 23.3923 15.1683 22.7991 15.5129 22.2986C15.8574 21.7982 16.3458 21.4142 16.9134 21.1974C17.4809 20.9806 18.101 20.9412 18.6914 21.0845C19.2818 21.2278 19.8148 21.547 20.2199 21.9999H29.9999V13.2199C29.547 12.8148 29.2278 12.2818 29.0845 11.6914C28.9412 11.101 28.9806 10.4809 29.1974 9.91336C29.4142 9.34578 29.7982 8.8574 30.2986 8.51286C30.7991 8.16831 31.3923 7.98383 31.9999 7.98383C32.6075 7.98383 33.2007 8.16831 33.7012 8.51286C34.2016 8.8574 34.5856 9.34578 34.8024 9.91336C35.0192 10.4809 35.0586 11.101 34.9153 11.6914C34.772 12.2818 34.4528 12.8148 33.9999 13.2199V21.9999H43.7799C44.114 21.6264 44.5363 21.3426 45.0082 21.1742C45.4802 21.0059 45.9869 20.9585 46.4819 21.0363C46.9769 21.1142 47.4445 21.3148 47.8421 21.6198C48.2396 21.9248 48.5545 22.3246 48.7578 22.7825C48.9612 23.2405 49.0465 23.7421 49.0062 24.2416C48.9658 24.7411 48.801 25.2225 48.5267 25.6419C48.2525 26.0612 47.8775 26.4052 47.4361 26.6425C46.9948 26.8797 46.501 27.0026 45.9999 26.9999Z" fill="#FFC87A"/>
<path d="M55.9999 23.9999C55.9997 22.8458 55.6002 21.7274 54.8693 20.8343C54.1384 19.9412 53.1211 19.3284 51.9899 19.0999C51.9899 19.0699 51.9999 19.0299 51.9999 18.9999C51.9999 17.6738 51.4731 16.402 50.5354 15.4644C49.5977 14.5267 48.326 13.9999 46.9999 13.9999C46.4897 14.0069 45.9837 14.0929 45.4999 14.2549C46.5122 14.5706 47.3974 15.201 48.0268 16.0543C48.6563 16.9077 48.9971 17.9395 48.9999 18.9999C48.9999 19.0299 48.9899 19.0699 48.9899 19.0999C50.1202 19.3294 51.1364 19.9426 51.8663 20.8356C52.5962 21.7286 52.9949 22.8465 52.9949 23.9999C52.9949 25.1533 52.5962 26.2711 51.8663 27.1642C51.1364 28.0572 50.1202 28.6704 48.9899 28.8999C48.9899 28.9299 48.9999 28.9699 48.9999 28.9999C48.9971 30.0603 48.6563 31.0921 48.0268 31.9455C47.3974 32.7988 46.5122 33.4292 45.4999 33.7449C45.9837 33.9069 46.4897 33.9929 46.9999 33.9999C48.326 33.9999 49.5977 33.4731 50.5354 32.5354C51.4731 31.5977 51.9999 30.326 51.9999 28.9999C51.9999 28.9699 51.9899 28.9299 51.9899 28.8999C53.1211 28.6714 54.1384 28.0586 54.8693 27.1655C55.6002 26.2724 55.9997 25.154 55.9999 23.9999ZM14.9999 28.9999C14.9999 28.9699 15.0099 28.9299 15.0099 28.8999C13.8796 28.6704 12.8634 28.0572 12.1335 27.1642C11.4036 26.2711 11.0049 25.1533 11.0049 23.9999C11.0049 22.8465 11.4036 21.7286 12.1335 20.8356C12.8634 19.9426 13.8796 19.3294 15.0099 19.0999C15.0099 19.0699 14.9999 19.0299 14.9999 18.9999C15.0026 17.9395 15.3435 16.9077 15.973 16.0543C16.6024 15.201 17.4876 14.5706 18.4999 14.2549C18.0161 14.0929 17.5101 14.0069 16.9999 13.9999C15.6738 13.9999 14.402 14.5267 13.4644 15.4644C12.5267 16.402 11.9999 17.6738 11.9999 18.9999C11.9999 19.0299 12.0099 19.0699 12.0099 19.0999C10.8796 19.3294 9.86342 19.9426 9.13352 20.8356C8.40361 21.7286 8.00488 22.8465 8.00488 23.9999C8.00488 25.1533 8.40361 26.2711 9.13352 27.1642C9.86342 28.0572 10.8796 28.6704 12.0099 28.8999C12.0099 28.9299 11.9999 28.9699 11.9999 28.9999C11.9999 30.326 12.5267 31.5977 13.4644 32.5354C14.402 33.4731 15.6738 33.9999 16.9999 33.9999C17.5101 33.9929 18.0161 33.9069 18.4999 33.7449C17.4876 33.4292 16.6024 32.7988 15.973 31.9455C15.3435 31.0921 15.0026 30.0603 14.9999 28.9999ZM36.9999 55.9999C36.9699 55.9999 36.9299 55.9899 36.8999 55.9899C36.6704 57.1202 36.0572 58.1364 35.1642 58.8663C34.2711 59.5962 33.1533 59.9949 31.9999 59.9949C30.8465 59.9949 29.7286 59.5962 28.8356 58.8663C27.9426 58.1364 27.3294 57.1202 27.0999 55.9899C27.0699 55.9899 27.0299 55.9999 26.9999 55.9999C25.9395 55.9971 24.9077 55.6563 24.0543 55.0268C23.201 54.3974 22.5706 53.5122 22.2549 52.4999C22.0929 52.9837 22.0069 53.4897 21.9999 53.9999C21.9999 55.326 22.5267 56.5977 23.4644 57.5354C24.402 58.4731 25.6738 58.9999 26.9999 58.9999C27.0299 58.9999 27.0699 58.9899 27.0999 58.9899C27.3294 60.1202 27.9426 61.1364 28.8356 61.8663C29.7286 62.5962 30.8465 62.9949 31.9999 62.9949C33.1533 62.9949 34.2711 62.5962 35.1642 61.8663C36.0572 61.1364 36.6704 60.1202 36.8999 58.9899C36.9299 58.9899 36.9699 58.9999 36.9999 58.9999C38.326 58.9999 39.5977 58.4731 40.5354 57.5354C41.4731 56.5977 41.9999 55.326 41.9999 53.9999C41.9929 53.4897 41.9069 52.9837 41.7449 52.4999C41.4292 53.5122 40.7988 54.3974 39.9455 55.0268C39.0921 55.6563 38.0603 55.9971 36.9999 55.9999ZM26.9999 7.9999C27.0299 7.9999 27.0699 8.0099 27.0999 8.0099C27.3294 6.87961 27.9426 5.86342 28.8356 5.13352C29.7286 4.40361 30.8465 4.00488 31.9999 4.00488C33.1533 4.00488 34.2711 4.40361 35.1642 5.13352C36.0572 5.86342 36.6704 6.87961 36.8999 8.0099C36.9299 8.0099 36.9699 7.9999 36.9999 7.9999C38.0603 8.00265 39.0921 8.34352 39.9455 8.97297C40.7988 9.60241 41.4292 10.4876 41.7449 11.4999C41.9069 11.0161 41.9929 10.5101 41.9999 9.9999C41.9999 8.67381 41.4731 7.40204 40.5354 6.46436C39.5977 5.52668 38.326 4.9999 36.9999 4.9999C36.9699 4.9999 36.9299 5.0099 36.8999 5.0099C36.6704 3.87961 36.0572 2.86342 35.1642 2.13352C34.2711 1.40361 33.1533 1.00488 31.9999 1.00488C30.8465 1.00488 29.7286 1.40361 28.8356 2.13352C27.9426 2.86342 27.3294 3.87961 27.0999 5.0099C27.0699 5.0099 27.0299 4.9999 26.9999 4.9999C25.6738 4.9999 24.402 5.52668 23.4644 6.46436C22.5267 7.40204 21.9999 8.67381 21.9999 9.9999C22.0069 10.5101 22.0929 11.0161 22.2549 11.4999C22.5706 10.4876 23.201 9.60241 24.0543 8.97297C24.9077 8.34352 25.9395 8.00265 26.9999 7.9999Z" fill="#F4AA47"/>
<path d="M34 16C34 14.8954 33.1046 14 32 14C30.8954 14 30 14.8954 30 16V19C30 20.1046 30.8954 21 32 21C33.1046 21 34 20.1046 34 19V16Z" fill="#FFFCED"/>
<path d="M41 22H37C35.8954 22 35 22.8954 35 24C35 25.1046 35.8954 26 37 26H41C42.1046 26 43 25.1046 43 24C43 22.8954 42.1046 22 41 22Z" fill="#FFFCED"/>
<path d="M27 22H23C21.8954 22 21 22.8954 21 24C21 25.1046 21.8954 26 23 26H27C28.1046 26 29 25.1046 29 24C29 22.8954 28.1046 22 27 22Z" fill="#FFFCED"/>
<path d="M32 26C33.1046 26 34 25.1046 34 24C34 22.8954 33.1046 22 32 22C30.8954 22 30 22.8954 30 24C30 25.1046 30.8954 26 32 26Z" fill="#FCCAFF"/>
<path d="M34 29C34 27.8954 33.1046 27 32 27C30.8954 27 30 27.8954 30 29V48C30 49.1046 30.8954 50 32 50C33.1046 50 34 49.1046 34 48V29Z" fill="white"/>
<path d="M46 26C47.1046 26 48 25.1046 48 24C48 22.8954 47.1046 22 46 22C44.8954 22 44 22.8954 44 24C44 25.1046 44.8954 26 46 26Z" fill="#FFCFD0"/>
<path d="M18 26C19.1046 26 20 25.1046 20 24C20 22.8954 19.1046 22 18 22C16.8954 22 16 22.8954 16 24C16 25.1046 16.8954 26 18 26Z" fill="#FFCFD0"/>
<path d="M32 13C33.1046 13 34 12.1046 34 11C34 9.89543 33.1046 9 32 9C30.8954 9 30 9.89543 30 11C30 12.1046 30.8954 13 32 13Z" fill="#FFCFD0"/>
<path d="M32 55C33.1046 55 34 54.1046 34 53C34 51.8954 33.1046 51 32 51C30.8954 51 30 51.8954 30 53C30 54.1046 30.8954 55 32 55Z" fill="#FFCFD0"/>
<path d="M32 25C32.5523 25 33 24.5523 33 24C33 23.4477 32.5523 23 32 23C31.4477 23 31 23.4477 31 24C31 24.5523 31.4477 25 32 25Z" fill="#F27EB7"/>
</svg>
