<svg width="64" height="64" viewBox="0 0 64 64" fill="none" xmlns="http://www.w3.org/2000/svg">
<path d="M32 8H14L16 3H30L32 8Z" fill="#9BFBFF"/>
<path d="M14 8H32L23 18L14 8Z" fill="#5BCBFA"/>
<path d="M20 8H26L23 18L20 8Z" fill="#46F8FF"/>
<path d="M20 8L18 3H28L26 8H20Z" fill="#5BCBFA"/>
<path d="M23 49.9999C20.6153 50.0032 18.2643 49.4379 16.1418 48.3509C14.0193 47.264 12.1865 45.6866 10.7955 43.7497C9.40451 41.8128 8.49535 39.5721 8.14343 37.2136C7.79151 34.855 8.00699 32.4466 8.77198 30.188C9.53697 27.9293 10.8294 25.8857 12.5422 24.2264C14.2549 22.5672 16.3385 21.3402 18.6203 20.6472C20.902 19.9543 23.3161 19.8153 25.6623 20.2418C28.0085 20.6684 30.2192 21.6482 32.111 23.0999C33.8308 22.2431 35.6659 21.6408 37.559 21.3119C35.1903 18.7685 32.2007 16.8851 28.8839 15.8467C25.5671 14.8083 22.0373 14.6506 18.6411 15.3892C15.2449 16.1277 12.0993 17.7371 9.5133 20.0591C6.92729 22.3812 4.98984 25.336 3.89131 28.6334C2.79279 31.9308 2.57097 35.4572 3.24765 38.8662C3.92433 42.2753 5.47624 45.4496 7.75089 48.0774C10.0256 50.7052 12.9447 52.696 16.2216 53.8543C19.4984 55.0126 23.0202 55.2985 26.441 54.6839C25.1259 53.2855 24.0186 51.7053 23.153 49.9919C23.1 49.9929 23.052 49.9999 23 49.9999Z" fill="#F3AC3C"/>
<path d="M41.0004 21C39.8465 21.0064 38.6952 21.1121 37.5594 21.316C38.8745 22.7144 39.9818 24.2946 40.8474 26.008C40.8984 26.008 40.9474 26 41.0004 26C43.3851 25.9967 45.7361 26.562 47.8586 27.649C49.9811 28.736 51.8139 30.3133 53.2049 32.2502C54.5959 34.1872 55.505 36.4278 55.857 38.7863C56.2089 41.1449 55.9934 43.5533 55.2284 45.812C54.4634 48.0706 53.171 50.1142 51.4582 51.7735C49.7455 53.4327 47.6618 54.6597 45.3801 55.3527C43.0984 56.0456 40.6843 56.1846 38.3381 55.7581C35.9919 55.3315 33.7812 54.3517 31.8894 52.9C30.1696 53.7568 28.3345 54.3591 26.4414 54.688C28.7116 57.1021 31.5464 58.9139 34.6906 59.9606C37.8348 61.0073 41.1899 61.2559 44.4541 60.6842C47.7182 60.1125 50.7891 58.7384 53.3904 56.6854C55.9918 54.6324 58.042 51.965 59.3566 48.923C60.6712 45.8811 61.2091 42.5601 60.9218 39.2587C60.6345 35.9573 59.531 32.7791 57.7106 30.01C55.8902 27.2409 53.4101 24.9677 50.4932 23.395C47.5763 21.8222 44.3143 20.9992 41.0004 21Z" fill="#F6CC4F"/>
<path d="M28.3313 49.0071C26.6774 49.6399 24.9241 49.9734 23.1533 49.9921C24.0189 51.7055 25.1262 53.2857 26.4413 54.6841C28.3342 54.3565 30.1693 53.7555 31.8893 52.9001C30.4833 51.8221 29.2788 50.5042 28.3313 49.0071Z" fill="#F3AC3C"/>
<path d="M35.6693 26.9929C37.3232 26.3601 39.0766 26.0265 40.8473 26.0079C39.9817 24.2945 38.8744 22.7143 37.5593 21.3159C35.6665 21.6435 33.8313 22.2445 32.1113 23.0999C33.5173 24.1779 34.7218 25.4958 35.6693 26.9929Z" fill="#F6CC4F"/>
<path d="M35.669 26.9931C34.7215 25.496 33.517 24.1781 32.111 23.1001C29.7477 24.2668 27.6392 25.8905 25.9075 27.8773C24.1757 29.8641 22.8551 32.1746 22.0221 34.6751C21.189 37.1756 20.86 39.8164 21.0542 42.4448C21.2483 45.0733 21.9617 47.6371 23.153 49.9881C24.9238 49.9695 26.6771 49.6359 28.331 49.0031C27.14 47.1272 26.3817 45.0095 26.1114 42.8039C25.841 40.5983 26.0653 38.3602 26.768 36.2521C27.4707 34.144 28.6341 32.2189 30.1738 30.6167C31.7134 29.0144 33.5906 27.7752 35.669 26.9891V26.9931Z" fill="#F6CC4F"/>
<path d="M38.0001 35C37.9985 38.0397 37.073 41.0071 35.3461 43.5087C33.6193 46.0103 31.1728 47.9278 28.3311 49.007C29.2785 50.504 30.483 51.822 31.8891 52.9C34.2524 51.7333 36.3609 50.1096 38.0926 48.1227C39.8244 46.1359 41.145 43.8255 41.978 41.325C42.8111 38.8245 43.1401 36.1837 42.9459 33.5552C42.7518 30.9268 42.0384 28.3629 40.8471 26.012C39.0763 26.0306 37.323 26.3641 35.6691 26.997C37.1913 29.3887 37.9999 32.1649 38.0001 35Z" fill="#F3AC3C"/>
</svg>
