<svg xmlns="http://www.w3.org/2000/svg" width="64" height="64" viewBox="0 0 64 64" fill="none">
  <path d="M44.6184 30.2L6.81839 29.3C6.56639 29.3 6.34139 29.39 6.17039 29.552C5.99939 29.714 5.90039 29.957 5.90039 30.2V48.2C5.90039 50.189 7.51139 51.8 9.50039 51.8H44.6004C45.0954 51.8 45.5004 51.395 45.5004 50.9V31.1C45.5004 30.614 45.1134 30.209 44.6184 30.2Z" fill="#CECECE"/>
  <path d="M48.2004 17.6H6.80039C6.30539 17.6 5.90039 18.005 5.90039 18.5V44.6C5.90039 46.589 7.51139 48.2 9.50039 48.2H37.4454C37.6524 48.2 37.8594 48.128 38.0214 47.993L48.7764 39.038C48.9834 38.867 49.1004 38.615 49.1004 38.345V18.5C49.1004 18.005 48.6954 17.6 48.2004 17.6Z" fill="#F2F2F2"/>
  <path d="M45.5004 8.59998H9.50039C7.51139 8.59998 5.90039 10.211 5.90039 12.2V19.4H49.1004V12.2C49.1004 10.211 47.4894 8.59998 45.5004 8.59998Z" fill="#04B1D9"/>
  <path d="M17.6002 8.6V7.7C17.6002 6.215 16.3852 5 14.9002 5C13.4152 5 12.2002 6.215 12.2002 7.7V12.2C12.2002 13.685 13.4152 14.9 14.9002 14.9C16.3852 14.9 17.6002 13.685 17.6002 12.2C17.6002 11.705 17.1952 11.3 16.7002 11.3C16.2052 11.3 15.8002 11.705 15.8002 12.2C15.8002 12.695 15.3952 13.1 14.9002 13.1C14.4052 13.1 14.0002 12.695 14.0002 12.2V7.7C14.0002 7.205 14.4052 6.8 14.9002 6.8C15.3952 6.8 15.8002 7.205 15.8002 7.7V8.6H17.6002ZM42.8002 8.6V7.7C42.8002 6.215 41.5852 5 40.1002 5C38.6152 5 37.4002 6.215 37.4002 7.7V12.2C37.4002 13.685 38.6152 14.9 40.1002 14.9C41.5852 14.9 42.8002 13.685 42.8002 12.2C42.8002 11.705 42.3952 11.3 41.9002 11.3C41.4052 11.3 41.0002 11.705 41.0002 12.2C41.0002 12.695 40.5952 13.1 40.1002 13.1C39.6052 13.1 39.2002 12.695 39.2002 12.2V7.7C39.2002 7.205 39.6052 6.8 40.1002 6.8C40.5952 6.8 41.0002 7.205 41.0002 7.7V8.6H42.8002Z" fill="#007E93"/>
  <path d="M40.9998 23H13.9998C12.5148 23 11.2998 24.215 11.2998 25.7V40.1C11.2998 41.585 12.5148 42.8 13.9998 42.8H40.9998C42.4848 42.8 43.6998 41.585 43.6998 40.1V25.7C43.6998 24.215 42.4848 23 40.9998 23ZM41.8998 32H36.4998V29.3H41.8998V32ZM34.6998 32H28.3998V29.3H34.6998V32ZM28.3998 27.5V24.8H34.6998V27.5H28.3998ZM26.5998 27.5H20.2998V24.8H26.5998V27.5ZM26.5998 29.3V32H20.2998V29.3H26.5998ZM18.4998 32H13.0998V29.3H18.4998V32ZM13.0998 33.8H18.4998V36.5H13.0998V33.8ZM20.2998 33.8H26.5998V36.5H20.2998V33.8ZM26.5998 38.3V41H20.2998V38.3H26.5998ZM28.3998 38.3H34.6998V41H28.3998V38.3ZM28.3998 36.5V33.8H34.6998V36.5H28.3998ZM36.4998 33.8H41.8998V36.5H36.4998V33.8ZM41.8998 25.7V27.5H36.4998V24.8H40.9998C41.4948 24.8 41.8998 25.205 41.8998 25.7ZM13.0998 25.7C13.0998 25.205 13.5048 24.8 13.9998 24.8H18.4998V27.5H13.0998V25.7ZM13.0998 40.1V38.3H18.4998V41H13.9998C13.5048 41 13.0998 40.595 13.0998 40.1ZM41.8998 40.1C41.8998 40.595 41.4948 41 40.9998 41H36.4998V38.3H41.8998V40.1Z" fill="#D3D3D3"/>
  <path d="M47.3 59C53.2647 59 58.1 54.1647 58.1 48.2C58.1 42.2353 53.2647 37.4 47.3 37.4C41.3353 37.4 36.5 42.2353 36.5 48.2C36.5 54.1647 41.3353 59 47.3 59Z" fill="#D9CE36"/>
  <path d="M50.9004 49.1H47.3004C46.8054 49.1 46.4004 48.695 46.4004 48.2V41.9C46.4004 41.405 46.8054 41 47.3004 41C47.7954 41 48.2004 41.405 48.2004 41.9V47.3H50.9004C51.3954 47.3 51.8004 47.705 51.8004 48.2C51.8004 48.695 51.3954 49.1 50.9004 49.1Z" fill="white"/>
</svg>