 <svg width="64" height="64" viewBox="0 0 64 64" fill="none" xmlns="http://www.w3.org/2000/svg">
<path d="M42.5002 28.1775C41.9544 27.9837 41.4492 27.6904 41.0102 27.3125C40.229 26.6387 38.7315 25.6337 36.754 25.6787C34.504 25.73 32.4015 27.1187 31.2277 29.2737C30.9675 29.7505 30.7581 30.2532 30.6027 30.7737L25.3377 46.8112C23.7402 46.425 21.7127 47.2837 20.5302 49.1062C19.6391 50.8199 18.3441 52.2908 16.757 53.3917C15.17 54.4927 13.3387 55.1905 11.4215 55.425C11.3164 55.4385 11.216 55.4763 11.1282 55.5355C11.0404 55.5946 10.9676 55.6735 10.9156 55.7657C10.8637 55.858 10.834 55.9611 10.8289 56.0669C10.8238 56.1727 10.8435 56.2782 10.8865 56.375C11.6884 58.2326 12.9817 59.8363 14.6272 61.0136C16.2727 62.1908 18.2082 62.897 20.2252 63.0562C20.5276 63.0809 20.8283 62.9922 21.0688 62.8074C21.3094 62.6225 21.4725 62.3547 21.5265 62.0562C21.8329 60.3072 22.536 58.6516 23.5817 57.2166C24.6274 55.7815 25.9879 54.605 27.559 53.7775C31.2252 53.9025 36.3427 53.315 39.4177 49.6762C40.8302 48.0037 42.6615 44.6762 42.874 40.8012C43.0377 37.8012 42.1402 36.1212 43.144 33.7525C43.969 31.8087 45.5815 30.5637 47.0002 29.7737L42.5002 28.1775Z" fill="#E0E8EE"/>
<path d="M26.1174 47.125L25.0336 48.6075C24.6326 49.5713 23.9026 50.3615 22.9736 50.8376C21.2524 51.6976 19.6061 51.0525 19.3486 50.9488C19.7978 50.3751 20.1932 49.7612 20.5299 49.1151C21.1361 47.9513 23.5936 46.2151 25.6136 46.9001C25.7885 46.9583 25.9573 47.0337 26.1174 47.125Z" fill="#B4C0D7"/>
<path d="M35.1062 34.8199L25.9112 47.2499C25.7375 47.2899 25.4787 47.3474 25.1475 47.4087L30.6075 30.7837C30.7628 30.2632 30.9723 29.7605 31.2325 29.2837C32.3853 29.6743 33.383 30.4231 34.0801 31.4209C34.7772 32.4187 35.1372 33.6131 35.1075 34.8299L35.1062 34.8199Z" fill="#B4C0D7"/>
<path d="M35.1067 34.82C33.7317 33.1025 31.1742 30.4562 27.2504 29.2512C24.8404 28.5112 22.8442 28.6012 19.3942 28.7512C13.4529 29.0162 11.9442 30.1737 8.05795 29.6462C5.93432 29.3483 3.88065 28.6749 1.99295 27.6575C1.2267 35.1687 4.46545 42.3637 10.4167 46.2187C16.7917 50.3437 23.6354 48.9237 25.0342 48.6012L35.1067 34.82Z" fill="#E0E8EE"/>
<path d="M38.6836 31.0288C39.2014 31.0288 39.6211 30.6091 39.6211 30.0913C39.6211 29.5735 39.2014 29.1538 38.6836 29.1538C38.1658 29.1538 37.7461 29.5735 37.7461 30.0913C37.7461 30.6091 38.1658 31.0288 38.6836 31.0288Z" fill="#99A2B1"/>
<path d="M12.4421 36.4099C12.6739 36.3243 12.8624 36.1506 12.9668 35.9268C13.0712 35.7029 13.0831 35.4468 12.9997 35.2143C12.9164 34.9817 12.7446 34.7915 12.5218 34.6848C12.2989 34.5782 12.043 34.5639 11.8096 34.6449C10.3632 35.1686 8.81052 35.3304 7.28715 35.1162C4.8934 34.7649 3.1434 33.5274 2.0459 32.4724C2.16604 33.4251 2.35275 34.3683 2.60465 35.2949C3.93633 36.1656 5.44084 36.7375 7.01465 36.9712C7.53577 37.0473 8.06175 37.0853 8.5884 37.0849C9.9022 37.0827 11.2058 36.8544 12.4421 36.4099ZM10.8671 43.4999C11.8461 43.4993 12.8216 43.386 13.7746 43.1624C13.8982 43.1382 14.0156 43.0894 14.1199 43.0188C14.2241 42.9482 14.3131 42.8574 14.3815 42.7517C14.4499 42.646 14.4963 42.5276 14.5179 42.4035C14.5395 42.2795 14.536 42.1524 14.5074 42.0298C14.4789 41.9072 14.4259 41.7916 14.3517 41.6898C14.2775 41.5881 14.1836 41.5024 14.0755 41.4378C13.9675 41.3732 13.8475 41.331 13.7228 41.3138C13.5981 41.2965 13.4712 41.3046 13.3496 41.3374C12.2652 41.5899 11.1484 41.6742 10.0384 41.5874C7.91545 41.4048 5.88762 40.6247 4.18965 39.3374C4.81445 40.5299 5.56497 41.6521 6.4284 42.6849C7.54035 43.1045 8.70607 43.3645 9.8909 43.4574C10.2134 43.4857 10.5388 43.4999 10.8671 43.4999ZM18.2346 45.5474C17.38 46.2749 16.3685 46.7945 15.2793 47.0654C14.1901 47.3363 13.053 47.3511 11.9571 47.1087C13.3696 47.8286 14.8715 48.3574 16.4234 48.6812C17.5285 48.3091 18.5535 47.7319 19.4446 46.9799C19.6346 46.8195 19.7531 46.5901 19.7739 46.3423C19.7948 46.0945 19.7164 45.8486 19.5559 45.6587C19.3954 45.4687 19.1661 45.3503 18.9183 45.3294C18.6705 45.3085 18.4246 45.387 18.2346 45.5474Z" fill="#B4C0D7"/>
<path d="M50.7156 26.2882L48.4912 25.407L49.3725 23.1828C49.5375 22.7665 49.783 22.3868 50.0948 22.0654C50.4066 21.744 50.7787 21.4871 51.1897 21.3095C51.6008 21.1319 52.0428 21.037 52.4906 21.0302C52.9384 21.0234 53.3831 21.1048 53.7993 21.2699L56.0225 22.1505L55.1412 24.375C54.8079 25.2155 54.1544 25.8892 53.3245 26.248C52.4946 26.6068 51.5562 26.6213 50.7156 26.2883V26.2882Z" fill="#A2E62E"/>
<path d="M45.2399 17.8711L47.4643 18.7522C48.3051 19.0853 48.9791 19.7387 49.3382 20.5688C49.6972 21.3988 49.7118 22.3375 49.3788 23.1783L48.4975 25.4027L46.2733 24.5215C45.8565 24.3564 45.4765 24.1108 45.1548 23.7987C44.833 23.4866 44.576 23.1141 44.3984 22.7026C44.2207 22.2911 44.126 21.8486 44.1195 21.4004C44.113 20.9522 44.195 20.5072 44.3606 20.0907L45.2399 17.8711ZM55.0144 16.8952L52.9271 15.7258L54.0965 13.6386C54.5386 12.8496 55.2759 12.2685 56.1464 12.0232C57.0169 11.7779 57.9492 11.8884 58.7381 12.3305L60.8254 13.4998L59.656 15.5871C59.214 16.3761 58.4766 16.9571 57.6061 17.2024C56.7356 17.4478 55.8034 17.3373 55.0144 16.8952ZM50.6988 7.83046L52.786 8.99983C53.1768 9.21896 53.5206 9.51294 53.7977 9.86499C54.0748 10.217 54.2798 10.6202 54.401 11.0515C54.5223 11.4829 54.5573 11.9338 54.5041 12.3787C54.451 12.8236 54.3107 13.2536 54.0913 13.6442L52.9219 15.7315L50.8346 14.5621C50.4439 14.3432 50.1002 14.0495 49.823 13.6978C49.5458 13.3461 49.3406 12.9432 49.2191 12.5122C49.0977 12.0811 49.0623 11.6304 49.115 11.1857C49.1677 10.741 49.3075 10.311 49.5264 9.92033L50.6976 7.82983L50.6988 7.83046Z" fill="#A2E62E"/>
<path d="M46.159 33.6637C46.0155 33.6638 45.8738 33.631 45.7449 33.5677C45.616 33.5045 45.5034 33.4125 45.4156 33.2989C45.3278 33.1853 45.2673 33.0531 45.2386 32.9124C45.21 32.7717 45.2139 32.6264 45.2503 32.4875C47.6068 23.6135 51.5099 15.2246 56.7803 7.70624C56.8495 7.60251 56.9388 7.51364 57.0428 7.44484C57.1468 7.37604 57.2636 7.32869 57.3861 7.30557C57.5087 7.28244 57.6346 7.284 57.7566 7.31016C57.8785 7.33631 57.994 7.38654 58.0963 7.4579C58.1986 7.52925 58.2856 7.6203 58.3523 7.72572C58.419 7.83113 58.4639 7.94878 58.4846 8.07179C58.5052 8.1948 58.501 8.32068 58.4724 8.44207C58.4438 8.56347 58.3912 8.67792 58.3178 8.77874C53.175 16.1172 49.3666 24.3051 47.0678 32.9662C47.0147 33.1666 46.8967 33.3437 46.7323 33.4699C46.5679 33.5961 46.3663 33.6643 46.159 33.6637Z" fill="#97D729"/>
<path d="M60.9081 1.51123L61.6446 3.78748C61.923 4.64794 61.8482 5.58376 61.4366 6.38906C61.0251 7.19436 60.3104 7.80319 59.45 8.08161L57.1737 8.81823L56.4371 6.54198C56.2992 6.11591 56.2466 5.66687 56.2823 5.22047C56.318 4.77408 56.4412 4.33908 56.645 3.94032C56.8488 3.54156 57.1292 3.18685 57.47 2.89643C57.8109 2.60602 58.2057 2.38559 58.6317 2.24773L60.908 1.51123H60.9081Z" fill="#A2E62E"/>
</svg>
