<svg width="64" height="64" viewBox="0 0 64 64" fill="none" xmlns="http://www.w3.org/2000/svg">
<g clip-path="url(#clip0_14305_4691)">
<path d="M35.446 2.95373H32.7876V0.492188H31.2122V2.95373H28.5537V4.43065H31.2122V12.9968H32.7876V4.43065H35.446V2.95373Z" fill="#DC4542"/>
<path d="M63.5076 32H0.492188V63.5077H63.5076V32Z" fill="#9DB1B7"/>
<path d="M47.4579 63.5076H16.541V22.5476L31.9995 12.9968L47.4579 22.5476V63.5076Z" fill="#D2E2EA"/>
<path d="M32.0003 15.0645L49.6249 27.5691L53.1695 25.0091L32.0003 10.043L10.8311 25.0091L14.3757 27.5691L32.0003 15.0645Z" fill="#DC4542"/>
<path d="M31.9997 43.1262C28.8489 43.1262 26.1904 45.6862 26.1904 48.9355V63.5078H37.8089V48.9355C37.8089 45.6862 35.1504 43.1262 31.9997 43.1262Z" fill="#445C6C"/>
<path d="M31.9995 35.3477C34.936 35.3477 37.3165 32.9672 37.3165 30.0308C37.3165 27.0943 34.936 24.7139 31.9995 24.7139C29.0631 24.7139 26.6826 27.0943 26.6826 30.0308C26.6826 32.9672 29.0631 35.3477 31.9995 35.3477Z" fill="#445C6C"/>
<path d="M57.3041 37.5139H52.4795V45.5878H57.3041V37.5139Z" fill="#445C6C"/>
<path d="M57.3041 49.9202H52.4795V57.994H57.3041V49.9202Z" fill="#445C6C"/>
<path d="M11.5199 37.5139H6.69531V45.5878H11.5199V37.5139Z" fill="#445C6C"/>
<path d="M11.5199 49.9202H6.69531V57.994H11.5199V49.9202Z" fill="#445C6C"/>
</g>
<defs>
<clipPath id="clip0_14305_4691">
<rect width="64" height="64" fill="white"/>
</clipPath>
</defs>
</svg>
