<svg width="20" height="20" viewBox="0 0 20 20" fill="none" xmlns="http://www.w3.org/2000/svg">
<path d="M10 2.5C14.1421 2.5 17.5 5.85786 17.5 10C17.5 14.1421 14.1421 17.5 10 17.5C5.85786 17.5 2.5 14.1421 2.5 10C2.5 5.85786 5.85786 2.5 10 2.5ZM12.9424 7.05762C12.6983 6.81354 12.3017 6.81354 12.0576 7.05762L10 9.11523L7.94238 7.05762C7.69831 6.81354 7.30169 6.81354 7.05762 7.05762C6.81354 7.30169 6.81354 7.69831 7.05762 7.94238L9.11523 10L7.05762 12.0576C6.81354 12.3017 6.81354 12.6983 7.05762 12.9424C7.30169 13.1865 7.69831 13.1865 7.94238 12.9424L10 10.8848L12.0576 12.9424C12.3017 13.1865 12.6983 13.1865 12.9424 12.9424C13.1865 12.6983 13.1865 12.3017 12.9424 12.0576L10.8848 10L12.9424 7.94238C13.1865 7.69831 13.1865 7.30169 12.9424 7.05762Z" fill="#B8BCC0"/>
</svg>
