<svg xmlns="http://www.w3.org/2000/svg" width="64" height="64" viewBox="0 0 64 64" fill="none">
  <path fill-rule="evenodd" clip-rule="evenodd" d="M32.7446 1.34929C33.1245 0.999311 33.675 0.899101 34.145 1.10906C34.615 1.30906 34.9147 1.77949 34.9047 2.29949C34.7947 10.8493 36.275 18.3191 39.7348 24.319C42.3248 19.1793 46.0852 18.0199 50.5151 22.6198L50.645 22.7096C50.505 17.6696 53.4449 13.5293 54.5649 12.1393C54.2049 11.1394 53.7047 9.18948 54.6245 7.62957C55.7642 5.65009 59.2329 4.8293 59.6245 4.73894C60.1543 4.60898 60.7344 4.98923 60.8246 5.52898C61.4746 8.74898 61.0048 12.7794 56.2348 13.2594C52.1249 18.3094 51.5953 23.4792 54.8452 30.3591C55.2652 31.2191 54.1445 32.1498 53.3745 31.5798C52.6745 30.8897 52.0251 28.6793 51.0952 25.6794C50.5852 25.8094 50.0245 25.3891 49.6245 25.1091C48.8145 25.9991 47.8048 27.3195 47.5248 28.2594C47.5161 28.2682 47.5152 28.2769 47.5151 28.279C46.5651 31.6589 47.4347 36.2892 46.0248 40.1491C43.8749 46.389 38.3249 49.3291 30.975 51.1491L21.3852 61.5192C19.7052 63.0292 16.8047 62.6995 15.6147 60.6296C15.1647 59.8296 15.0152 58.8694 15.1752 57.9694C13.4452 57.5294 12.2246 55.4389 12.5746 53.7389C9.37499 52.8087 9.06497 47.9994 12.2348 46.6794C12.2948 46.6494 12.3552 46.6191 12.4252 46.6091L23.4545 43.569C23.7045 42.9891 23.9653 42.3997 24.2153 41.8698C6.64538 43.0898 0.98505 25.0996 2.14496 11.2497C2.20496 10.1797 3.64511 9.68913 4.34515 10.4889C10.3652 16.8289 16.6052 21.4996 23.0952 24.4196C22.6152 14.6897 26.4346 7.28928 32.7446 1.34929ZM13.225 49.0495C11.895 49.6895 12.6752 51.7495 14.0952 51.2995C15.8051 49.9297 17.3848 52.5894 15.435 53.5094C15.0551 53.8793 14.9649 54.529 15.2846 55.029C15.5646 55.5189 16.2945 55.7491 16.8745 55.4294C17.4745 55.0994 18.2352 55.2996 18.5952 55.8796C18.945 56.4695 18.7745 57.2299 18.2045 57.6198C16.9252 58.51 18.1253 60.6093 19.5952 59.6794L26.9545 51.7292C24.6049 51.1291 22.8054 48.8696 22.6352 46.4499L13.225 49.0495ZM47.645 23.4889C42.3152 18.8794 42.9748 29.1596 36.1752 30.1198C31.6052 33.4298 29.3153 36.6598 27.5453 40.8298C27.5254 40.8698 27.5048 40.9294 27.4848 40.9694C27.4848 40.9794 27.485 40.9897 27.475 40.9997C27.4749 41.0094 27.4654 41.0095 27.4653 41.0192C26.8053 42.3392 26.055 43.9496 25.475 45.3796C25.455 45.3896 25.4545 45.4096 25.4545 45.4196C24.9348 46.4395 25.5153 47.4593 26.1352 48.3093C29.1253 50.7391 38.5747 45.679 39.5746 44.779C47.5545 39.279 41.6249 30.1695 47.1547 24.0495C47.3247 23.8495 47.485 23.6589 47.645 23.4889ZM4.58441 14.3991C4.61441 16.6991 4.72472 18.8396 5.15472 21.4196C6.82467 23.1995 8.36487 24.1292 10.2348 24.7292H10.2446C11.8845 25.0992 11.2048 27.6697 9.60492 27.1999C9.59492 27.1999 9.58488 27.1991 9.56488 27.1891C8.43491 26.8791 7.19485 26.2795 6.06488 25.5495C6.55487 27.3094 7.22444 29.0296 8.08441 30.6296C9.59441 31.2096 10.5749 31.4092 11.8549 31.4792C13.4249 31.5992 13.3049 34.0688 11.725 34.029C11.235 34.019 10.8946 33.9893 10.2846 33.8893C11.5246 35.3493 12.9846 36.5497 14.7045 37.4596C16.0444 36.7597 16.9347 36.0795 17.8246 35.2096C18.9346 33.9696 20.8545 35.7499 19.7045 36.9499C19.7042 36.9594 19.6948 36.9596 19.685 36.9694C19.165 37.5194 18.4348 38.1196 17.6948 38.6296L17.685 38.6393C19.8549 39.2593 22.4047 39.4989 25.4145 39.2389C26.9245 35.8591 28.9247 32.9391 32.2446 29.9391C29.5847 29.4691 26.9744 28.7396 24.4145 27.7497C24.1648 27.7296 23.9352 27.6394 23.7553 27.4997C17.0453 24.7997 10.6644 20.3791 4.58441 14.3991ZM32.3745 5.38933C31.7145 6.12924 31.095 6.88947 30.5151 7.67937C31.305 8.97931 31.6951 9.86931 32.0551 11.0593C32.4751 12.6593 29.9546 13.2894 29.5746 11.6794H29.5649V11.6491C29.4249 11.1792 29.2049 10.6292 28.935 10.0993C28.515 10.8293 28.1346 11.5695 27.7846 12.3395C29.2046 14.0795 29.9046 15.3898 30.4946 17.1198C30.5045 17.1397 30.5053 17.1497 30.5053 17.1696C30.9849 18.7394 28.4653 19.4592 28.0453 17.8493C27.7554 16.9793 27.3252 16.0893 26.7153 15.1794C26.3753 16.2993 26.1045 17.4692 25.9145 18.6891C27.3845 20.0491 28.2253 21.2194 29.0053 22.6794C29.0053 22.6894 29.0151 22.6996 29.0151 22.7096L29.0248 22.7292H29.0151C29.7451 24.2192 27.3845 25.3293 26.7045 23.8093C26.7044 23.7992 26.695 23.7793 26.6752 23.7594C26.4452 23.2794 26.0245 22.6496 25.6245 22.1296C25.5945 23.2195 25.635 24.3397 25.725 25.4997C28.895 26.5697 32.1053 27.6891 35.4252 27.6491C36.355 27.4991 37.2648 27.0994 38.0346 26.4596C34.3646 20.5496 32.6345 13.3693 32.3745 5.38933ZM58.9946 6.99968C56.6948 7.7197 55.5047 8.94976 56.3647 11.2096C57.1546 11.0497 58.2044 10.6793 58.6245 9.96941C59.0444 9.23947 59.0645 7.96965 58.9946 6.99968Z" fill="#CFD2D5"/>
  <path fill-rule="evenodd" clip-rule="evenodd" d="M56.5952 15.9499C58.6752 15.5401 62.0047 16.9698 62.1547 17.8298C62.3343 18.7199 60.3946 21.1196 58.2348 21.8796C56.2951 22.4195 53.6855 20.8401 53.4448 20.03C53.3448 19.17 54.2552 16.8099 56.5952 15.9499ZM59.6645 18.4098C57.9045 17.5599 56.4449 17.5799 55.645 19.4098C56.2349 19.7698 57.1049 20.1296 57.6948 19.9596C58.3347 19.7797 59.0845 19.0897 59.6645 18.4098Z" fill="#CFD2D5"/>
  <path fill-rule="evenodd" clip-rule="evenodd" d="M45.8745 7.74089C46.7344 7.73089 50.1149 8.47035 51.685 10.5202C53.015 12.7902 52.0552 15.5009 51.4252 16.071C50.6453 16.431 47.7948 16.3008 46.1948 14.1911C44.9848 12.3911 45.0949 9.05058 45.1049 8.67058C45.1249 8.24075 45.4447 7.83109 45.8745 7.74089ZM47.1245 10.0309C47.1745 12.2407 47.865 14.0403 50.1547 14.1803C50.9146 11.7505 49.4744 10.7209 47.1245 10.0309Z" fill="#CFD2D5"/>
</svg>