<svg width="122" height="36" viewBox="0 0 122 36" fill="none" xmlns="http://www.w3.org/2000/svg">
<path d="M35.2194 18.0002C35.2194 8.55397 27.5648 0.895753 18.1186 0.888672C18.115 0.888672 18.1115 0.888672 18.108 0.888672C18.1009 0.888672 18.0973 0.888672 18.0903 0.888672C8.64759 0.899294 1 8.55397 1 18.0002C1 27.4499 8.65822 35.1081 18.1044 35.1117C18.1044 35.1117 18.108 35.1117 18.1115 35.1117C18.1115 35.1117 18.115 35.1117 18.1186 35.1117C27.5648 35.1081 35.223 27.4499 35.223 18.0002H35.2194ZM18.1327 34.2903C18.1327 34.2903 18.115 34.2903 18.1044 34.2903C18.0973 34.2903 18.0938 34.2903 18.0867 34.2903C15.4384 34.2867 12.9812 32.5377 11.1614 29.5955C9.34155 26.6533 8.20149 22.5427 8.20149 18.0002C8.20149 13.4576 9.34155 9.34705 11.1614 6.40485C12.9742 3.46974 15.4242 1.72424 18.0655 1.71008C18.0796 1.71008 18.0903 1.71008 18.1044 1.71008C18.1186 1.71008 18.1327 1.71008 18.1469 1.71008C20.7846 1.72424 23.2347 3.47328 25.0474 6.40485C26.8673 9.34705 28.0073 13.4576 28.0073 18.0002C28.0073 22.5427 26.8673 26.6497 25.0474 29.5955C23.2311 32.5341 20.7775 34.2832 18.1327 34.2903ZM10.4674 5.97645C8.55554 9.07797 7.38716 13.3196 7.38716 18.0002C7.38716 22.6808 8.55554 26.9224 10.4674 30.0239C11.1578 31.1462 11.9545 32.1199 12.829 32.9094C11.3526 32.0987 10.0107 30.9586 8.87419 29.553C6.49494 26.6108 5.0079 22.525 5.01145 18.0002C5.01145 13.4789 6.49494 9.38954 8.87419 6.44734C10.0107 5.04174 11.3526 3.90168 12.829 3.0909C11.9509 3.88044 11.1578 4.85409 10.4639 5.97645H10.4674ZM25.7485 30.0274C27.6604 26.9259 28.8287 22.6843 28.8287 18.0037C28.8287 13.3231 27.6604 9.08151 25.7485 5.97999C25.0581 4.85763 24.2614 3.88398 23.3869 3.09798C24.8633 3.90876 26.2017 5.04882 27.3417 6.45442C29.7245 9.39662 31.208 13.4824 31.208 18.0072C31.208 22.5321 29.7245 26.6179 27.3417 29.5601C26.2052 30.9657 24.8669 32.1057 23.3905 32.9165C24.265 32.127 25.0616 31.1533 25.752 30.0345L25.7485 30.0274ZM1.81787 18.0002C1.81787 13.5001 3.64125 9.42849 6.59053 6.47921C7.81203 5.25771 9.22825 4.23449 10.7825 3.44849C9.85492 4.1566 9.00165 4.98863 8.24043 5.93042C5.73372 9.03195 4.19358 13.2948 4.19358 17.9966C4.19358 22.6985 5.73372 26.9613 8.24043 30.0628C9.00165 31.0046 9.85492 31.8402 10.7825 32.5448C9.2247 31.7588 7.80849 30.7355 6.587 29.514C3.63771 26.5648 1.81433 22.4931 1.81433 17.9931L1.81787 18.0002ZM25.4369 32.5518C26.3645 31.8437 27.2178 31.0117 27.979 30.0699C30.4857 26.9684 32.0259 22.7056 32.0259 18.0037C32.0259 13.3019 30.4857 9.03903 27.979 5.9375C27.2178 4.99571 26.3645 4.16368 25.4369 3.45557C26.9912 4.24158 28.4074 5.2648 29.6289 6.48275C32.5782 9.43203 34.4016 13.5037 34.4016 18.0037C34.4016 22.5037 32.5782 26.5754 29.6289 29.5247C28.4074 30.7462 26.9947 31.7694 25.4369 32.5554V32.5518Z" fill="white"/>
<path d="M15.9095 11.953H15.9059V15.798H12.0715V15.8086C11.7352 15.7095 10.6553 15.3625 10.5455 15.1501C10.7119 15.5219 10.7934 16.5168 10.804 17.7205H17.8285V10.6961C16.6247 10.6855 15.6298 10.6005 15.258 10.4341C15.4634 10.5438 15.8033 11.5989 15.9059 11.9494M25.6708 15.1536C25.561 15.3625 24.5059 15.706 24.1554 15.8086V15.8016H20.3104V11.9565H20.3033C20.406 11.606 20.7494 10.5509 20.9583 10.4412C20.5865 10.6076 19.5881 10.689 18.3879 10.6996V17.7241H25.4123C25.4229 16.5238 25.5079 15.5254 25.6708 15.1536ZM10.542 20.8504C10.6517 20.6415 11.7281 20.2981 12.068 20.1954V20.2025H15.9024V24.0369H15.9095C15.8103 24.3768 15.4669 25.4566 15.258 25.5664C15.6262 25.4 16.6247 25.3186 17.8285 25.3044V18.2764H10.804C10.7934 19.4767 10.7084 20.4751 10.5455 20.8468M25.4123 18.2799H18.3879V25.3079C19.5881 25.3186 20.5865 25.4035 20.9583 25.5664C20.7459 25.4566 20.3954 24.3768 20.2998 24.0369H20.3104V20.2025H24.1554C24.513 20.3051 25.5646 20.6415 25.6708 20.8504C25.5044 20.4786 25.4229 19.4802 25.4123 18.2799Z" fill="white"/>
<path d="M51.0141 12.4592L50.2068 13.4682L46.5671 11.4182L42.2583 13.5921L41.5112 12.5371L47.8771 9.12042H42.0919V7.87769H50.5326V8.93277L47.7886 10.6712L51.0105 12.4592H51.0141ZM54.1298 19.0765H42.3468V14.7428H54.1298V19.0765ZM52.7277 15.9856H43.7489V17.8337H52.7277V15.9856ZM55.9921 7.87769V9.12042H54.1121V13.362H52.71V7.87769H55.9921Z" fill="white"/>
<path d="M57.2275 12.8947H66.3551V14.1375H62.372V16.9026H60.9557V14.1375H57.2275V12.8947ZM69.6938 19.0765H58.1233V16.6548C58.1233 16.3326 58.1127 16.0671 58.0914 15.8546C58.0737 15.6422 57.9498 15.5006 57.7197 15.4262L57.794 15.2067H59.8369L59.9113 15.4262C59.7413 15.497 59.6387 15.6351 59.5962 15.8369C59.5572 16.0387 59.5395 16.3043 59.5395 16.6371V17.8338H68.2918V16.3751H63.9971V15.1323H68.2918V9.3223C68.2918 9.00011 68.2812 8.73457 68.2634 8.52214C68.2457 8.3097 68.1183 8.16808 67.8917 8.09373L67.966 7.87776H69.9948L70.0691 8.09373C69.8992 8.16808 69.7965 8.30262 69.7576 8.50443C69.7186 8.70625 69.6974 8.97179 69.6974 9.3046V19.073L69.6938 19.0765ZM64.4751 9.9596C64.4751 10.3101 64.3972 10.6429 64.2449 10.9545C64.0891 11.2661 63.8838 11.5351 63.6253 11.7617C63.3669 11.999 63.0624 12.1866 62.7154 12.3212C62.3684 12.4557 61.9931 12.523 61.5966 12.523C61.2 12.523 60.8283 12.4557 60.4778 12.3212C60.1308 12.1866 59.8263 11.999 59.5679 11.7617C59.3094 11.5351 59.104 11.2661 58.9483 10.9545C58.796 10.6429 58.7181 10.3137 58.7181 9.9596C58.7181 9.60555 58.796 9.27627 58.9483 8.96471C59.104 8.65314 59.3094 8.38406 59.5679 8.15746C59.8263 7.92024 60.1308 7.73259 60.4778 7.59805C60.8247 7.46351 61.1965 7.39624 61.5966 7.39624C61.9967 7.39624 62.3684 7.46351 62.7154 7.59805C63.0624 7.73259 63.3669 7.9167 63.6253 8.15746C63.8838 8.38406 64.0891 8.65314 64.2449 8.96471C64.3972 9.27627 64.4751 9.60555 64.4751 9.9596ZM63.073 9.97376C63.073 9.61263 62.9314 9.30106 62.641 9.0426C62.3543 8.78414 62.0037 8.65314 61.5966 8.65314C61.1894 8.65314 60.8425 8.7806 60.5557 9.0426C60.2689 9.30106 60.1237 9.61263 60.1237 9.97376C60.1237 10.3349 60.2689 10.6465 60.5557 10.9049C60.8425 11.1634 61.193 11.2944 61.5966 11.2944C62.0002 11.2944 62.3543 11.1669 62.641 10.9049C62.9278 10.6465 63.073 10.3349 63.073 9.97376Z" fill="white"/>
<path d="M84.8866 11.7122H79.5651V12.8452H85.3362V14.0879H72.4238V12.8452H78.1489V11.7122H72.8841V7.87427H84.8866V9.117H74.2862V10.4695H84.8866V11.7122ZM81.9939 17.756C81.9939 18.1914 81.9125 18.6021 81.7461 18.9916C81.5832 19.3811 81.3566 19.721 81.0699 20.0077C80.7901 20.2981 80.4644 20.5034 80.0856 20.6309C79.7067 20.7548 79.3067 20.8185 78.8783 20.8185C78.4499 20.8185 78.0498 20.7583 77.6709 20.6309C77.2921 20.507 76.9628 20.2981 76.6867 20.0077C76.3999 19.7174 76.1733 19.3775 76.0104 18.9916C75.8475 18.6021 75.7661 18.1914 75.7661 17.756C75.7661 17.3205 75.8475 16.9098 76.0104 16.5203C76.1733 16.1308 76.3999 15.7945 76.6867 15.5042C76.9664 15.2138 77.2921 15.0085 77.6709 14.8846C78.0498 14.7606 78.4499 14.6969 78.8783 14.6969C79.3067 14.6969 79.7067 14.7606 80.0856 14.8846C80.4644 15.0085 80.7937 15.2138 81.0699 15.5042C81.3566 15.7945 81.5832 16.1344 81.7461 16.5203C81.909 16.9098 81.9939 17.3205 81.9939 17.756ZM80.5636 17.756C80.5636 17.2284 80.3971 16.7965 80.0643 16.4601C79.7315 16.1238 79.335 15.9538 78.8783 15.9538C78.4215 15.9538 78.025 16.1238 77.6922 16.4601C77.3594 16.7965 77.193 17.2284 77.193 17.756C77.193 18.2835 77.3594 18.7154 77.6922 19.0518C78.025 19.3881 78.4215 19.5581 78.8783 19.5581C79.335 19.5581 79.7315 19.3881 80.0643 19.0518C80.3971 18.7154 80.5636 18.2835 80.5636 17.756Z" fill="white"/>
<path d="M96.0248 9.95959L92.2825 13.9533L91.3584 13.0682L96.3081 7.45996L97.4269 8.28491L96.9029 8.95408L100.84 13.054L99.9159 13.9852L96.0248 9.96313V9.95959ZM103.272 17.6178C103.272 18.0533 103.191 18.464 103.028 18.8535C102.865 19.2394 102.639 19.5793 102.348 19.8696C102.069 20.1599 101.739 20.3901 101.364 20.56C100.985 20.73 100.585 20.8185 100.157 20.8185C99.7283 20.8185 99.3282 20.7335 98.9493 20.56C98.5705 20.3901 98.2448 20.1599 97.9651 19.8696C97.6783 19.5793 97.4517 19.2394 97.2888 18.8535C97.126 18.464 97.0445 18.0533 97.0445 17.6178C97.0445 17.1823 97.126 16.7716 97.2888 16.3857C97.4517 15.9962 97.6818 15.6563 97.9651 15.366C98.2448 15.0757 98.574 14.8456 98.9493 14.6756C99.3282 14.5057 99.7283 14.4207 100.157 14.4207C100.585 14.4207 100.985 14.5057 101.364 14.6756C101.743 14.8456 102.069 15.0757 102.348 15.366C102.635 15.6563 102.862 15.9962 103.028 16.3857C103.191 16.7716 103.272 17.1859 103.272 17.6178ZM101.838 17.6178C101.838 17.0903 101.672 16.6335 101.339 16.2512C101.006 15.8688 100.61 15.6776 100.153 15.6776C99.6964 15.6776 99.2999 15.8688 98.9706 16.2512C98.6378 16.6335 98.4714 17.0903 98.4714 17.6178C98.4714 18.1454 98.6378 18.6021 98.9706 18.9845C99.3034 19.3668 99.6964 19.558 100.153 19.558C100.61 19.558 101.006 19.3668 101.339 18.9845C101.672 18.6021 101.838 18.1454 101.838 17.6178ZM102.911 14.2932V9.12048H100.107V7.87775H104.313V14.2932H102.911Z" fill="white"/>
<path d="M106.909 13.7019V7.87769H114.783V9.12042H108.311V12.4592H117.722V7.87769H121V9.12042H119.12V13.7019H106.909ZM118.076 17.6177C118.076 18.0532 117.994 18.4639 117.831 18.8534C117.668 19.2429 117.442 19.5828 117.152 19.8695C116.875 20.1599 116.546 20.39 116.167 20.5599C115.792 20.7299 115.388 20.8184 114.96 20.8184C114.532 20.8184 114.131 20.7334 113.753 20.5599C113.374 20.39 113.044 20.1599 112.768 19.8695C112.482 19.5792 112.255 19.2393 112.089 18.8534C111.926 18.4639 111.844 18.0532 111.844 17.6177C111.844 17.1823 111.926 16.7716 112.089 16.3821C112.251 15.9926 112.478 15.6527 112.768 15.366C113.044 15.0756 113.374 14.8455 113.753 14.6755C114.128 14.5056 114.532 14.4206 114.96 14.4206C115.388 14.4206 115.792 14.5056 116.167 14.6755C116.546 14.8455 116.875 15.0756 117.152 15.366C117.438 15.6563 117.665 15.9962 117.831 16.3821C117.994 16.7716 118.076 17.1823 118.076 17.6177ZM116.645 17.6177C116.645 17.0902 116.479 16.6335 116.142 16.2511C115.813 15.8687 115.417 15.6775 114.96 15.6775C114.503 15.6775 114.107 15.8687 113.774 16.2511C113.441 16.6335 113.275 17.0902 113.275 17.6177C113.275 18.1453 113.441 18.602 113.774 18.9844C114.107 19.3668 114.503 19.558 114.96 19.558C115.417 19.558 115.813 19.3668 116.142 18.9844C116.479 18.602 116.645 18.1453 116.645 17.6177Z" fill="white"/>
<path d="M44.0356 26.9012C44.0356 26.9968 44.0285 27.1137 44.0108 27.2553C43.9931 27.3969 43.9365 27.5208 43.8338 27.6271C43.7028 27.7687 43.5081 27.8572 43.2531 27.8926C43.0442 27.8926 42.8601 27.8572 42.6973 27.7828V27.2942L42.7539 27.2765C42.8531 27.4394 42.9982 27.5173 43.1859 27.5138C43.37 27.5138 43.4868 27.4217 43.547 27.2376C43.5718 27.1632 43.5859 27.0004 43.5859 26.749V24.8654C43.5859 24.7663 43.5859 24.6849 43.5753 24.6211C43.5682 24.5574 43.5293 24.5114 43.4549 24.4901L43.4797 24.4229H44.0356V26.9012Z" fill="white"/>
<path d="M44.9561 27.8041C45.041 27.7297 45.1225 27.6058 45.2004 27.4288L46.482 24.4229H46.6803L47.9514 27.4005C48.0363 27.5987 48.1213 27.7333 48.2063 27.7935L48.178 27.8536H47.6008L47.5584 27.8218C47.5867 27.7581 47.5584 27.6377 47.4805 27.4606L47.2503 26.9154H45.9155L45.696 27.4394C45.6252 27.6058 45.6004 27.7333 45.6181 27.8253L45.5792 27.8572H44.995L44.9561 27.8041ZM46.0642 26.533H47.1016L46.5847 25.2584L46.0678 26.533H46.0642Z" fill="white"/>
<path d="M50.8441 27.9102H50.7414L49.789 25.6796L49.3995 27.4039C49.3499 27.5845 49.3429 27.7225 49.3853 27.8146L49.3322 27.8571H48.8047L48.7622 27.804C48.833 27.7225 48.8932 27.5809 48.9392 27.3826L49.6296 24.3696H49.75L50.798 26.933L51.8213 24.3696H51.9452L52.6356 27.4039C52.6816 27.5951 52.7453 27.7261 52.8161 27.7969L52.7843 27.8571H52.2142L52.1647 27.8146C52.2107 27.7402 52.2143 27.6092 52.1788 27.4216L51.7823 25.6867L50.8405 27.9102H50.8441Z" fill="white"/>
<path d="M55.4645 24.4229C55.4822 24.5255 55.5141 24.6388 55.5566 24.7698L56.3886 26.8375L57.2419 24.8123C57.3056 24.6601 57.341 24.5291 57.3481 24.4229H57.9677L58.0066 24.4795C57.9004 24.5645 57.8119 24.6884 57.734 24.8442L56.4311 27.9068H56.3461L55.6982 26.3772L55.0503 27.9068H54.9653L53.6836 24.8796C53.5987 24.6778 53.4995 24.5432 53.3862 24.476L53.4181 24.4229H54.0518C54.0518 24.522 54.0837 24.6459 54.1439 24.7981L55.0078 26.8411L55.4504 25.7966L55.0892 24.8123C55.0078 24.6671 54.9157 24.5609 54.806 24.4937L54.8485 24.4229H55.4681H55.4645Z" fill="white"/>
<path d="M62.418 26.1505C62.418 26.3948 62.3684 26.625 62.2728 26.8409C62.1737 27.0569 62.0463 27.2481 61.8798 27.4074C61.7134 27.5703 61.5187 27.6978 61.2957 27.7898C61.0726 27.8819 60.8354 27.9314 60.584 27.9314C60.3326 27.9314 60.0919 27.8854 59.8723 27.7898C59.6493 27.6978 59.4546 27.5703 59.2882 27.4074C59.1253 27.2446 58.9943 27.0569 58.8952 26.8409C58.796 26.625 58.75 26.3948 58.75 26.1505C58.75 25.9062 58.7996 25.6761 58.8952 25.4601C58.9943 25.2441 59.1218 25.053 59.2882 24.8936C59.4546 24.7308 59.6493 24.6033 59.8723 24.5113C60.0954 24.4192 60.3326 24.3696 60.584 24.3696C60.8354 24.3696 61.0726 24.4157 61.2957 24.5113C61.5187 24.6033 61.7134 24.7308 61.8798 24.8936C62.0427 25.0565 62.1737 25.2441 62.2728 25.4601C62.372 25.6761 62.418 25.9062 62.418 26.1505ZM61.9577 26.1434C61.9577 25.9523 61.9223 25.7752 61.848 25.6053C61.7736 25.4353 61.6745 25.2866 61.5506 25.1592C61.4267 25.0317 61.2779 24.9326 61.1115 24.8582C60.9451 24.7839 60.7646 24.7449 60.5698 24.7449C60.3751 24.7449 60.1981 24.7839 60.0281 24.8582C59.8617 24.9326 59.713 25.0317 59.5891 25.1592C59.4652 25.2866 59.3661 25.4353 59.2917 25.6053C59.2174 25.7752 59.1819 25.9558 59.1819 26.1434C59.1819 26.3311 59.2209 26.5152 59.2917 26.6816C59.3661 26.8516 59.4652 27.0003 59.5891 27.1277C59.713 27.2552 59.8617 27.3543 60.0281 27.4287C60.1945 27.503 60.3751 27.542 60.5698 27.542C60.7646 27.542 60.9416 27.5066 61.1115 27.4287C61.2815 27.3508 61.4267 27.2552 61.5506 27.1277C61.6745 27.0003 61.7736 26.8516 61.848 26.6816C61.9223 26.5117 61.9577 26.3311 61.9577 26.1434Z" fill="white"/>
<path d="M66.0328 27.9102H65.9266L64.043 25.492V27.4216C64.043 27.5243 64.0501 27.6057 64.0608 27.6659C64.0749 27.7261 64.1068 27.7686 64.1634 27.7933L64.1386 27.8606H63.4872L63.4624 27.7933C63.5368 27.7721 63.5757 27.7261 63.5828 27.6623C63.5899 27.5986 63.5934 27.5172 63.5934 27.418V24.3696H63.6996L65.5832 26.7843V24.8688C65.5832 24.7697 65.5832 24.6883 65.5726 24.6245C65.5655 24.5608 65.5265 24.5148 65.4522 24.4935L65.477 24.4263H66.1284L66.1532 24.4935C66.1001 24.5148 66.0647 24.5573 66.0505 24.621C66.0364 24.6812 66.0328 24.7626 66.0328 24.8653V27.9137V27.9102Z" fill="white"/>
<path d="M71.7152 25.1558C71.6621 25.0495 71.5665 24.9575 71.4214 24.8725C71.2762 24.7875 71.0956 24.7451 70.8797 24.7451C70.6637 24.7451 70.4831 24.7805 70.3167 24.8477C70.1503 24.915 70.0087 25.0106 69.8883 25.131C69.7715 25.2478 69.683 25.3859 69.6228 25.5488C69.559 25.7116 69.5272 25.8851 69.5272 26.0728C69.5272 26.3029 69.5626 26.5082 69.6334 26.6817C69.7077 26.8552 69.8033 27.0004 69.9272 27.1208C70.0512 27.2411 70.1999 27.3297 70.3627 27.3898C70.5291 27.45 70.7062 27.4784 70.8974 27.4784C70.9399 27.4784 70.9894 27.4784 71.0461 27.4677C71.1027 27.4607 71.1664 27.4465 71.2337 27.4252C71.301 27.404 71.3683 27.3721 71.4355 27.3297C71.5028 27.2872 71.5701 27.2305 71.6303 27.1562L71.6834 27.1845V27.8891L71.6444 27.9138L71.5665 27.8466C71.4709 27.8714 71.3683 27.8891 71.255 27.8997C71.1452 27.9103 71.0461 27.9138 70.9611 27.9138C70.7416 27.9138 70.5221 27.8855 70.3026 27.8253C70.0795 27.7651 69.8777 27.666 69.6936 27.5279C69.5095 27.3898 69.3608 27.2022 69.2439 26.965C69.1271 26.7278 69.0669 26.4339 69.0669 26.0834C69.0669 25.8462 69.1094 25.6231 69.1908 25.4142C69.2722 25.2053 69.3926 25.0248 69.5484 24.8725C69.7007 24.7167 69.8918 24.5963 70.1184 24.5078C70.345 24.4193 70.6 24.3733 70.8832 24.3733C71.0461 24.3733 71.1877 24.3839 71.3045 24.4052C71.4214 24.4264 71.517 24.4476 71.5878 24.4653L71.7082 24.3662L71.7648 24.3804V25.1416L71.7011 25.1593L71.7152 25.1558Z" fill="white"/>
<path d="M72.5547 27.8041C72.6361 27.7297 72.7176 27.6058 72.799 27.4288L74.0807 24.4229H74.2789L75.55 27.4005C75.635 27.5987 75.7199 27.7333 75.8049 27.7935L75.7766 27.8536H75.1995L75.157 27.8218C75.1853 27.7581 75.157 27.6377 75.0791 27.4606L74.849 26.9154H73.5142L73.2947 27.4394C73.2239 27.6058 73.1991 27.7333 73.2168 27.8253L73.1778 27.8572H72.5936L72.5547 27.8041ZM73.6629 26.533H74.7003L74.1833 25.2584L73.6664 26.533H73.6629Z" fill="white"/>
<path d="M77.6637 24.8052V27.4146C77.6637 27.5173 77.6708 27.5987 77.6815 27.6589C77.6956 27.7191 77.7275 27.7616 77.7841 27.7864L77.7593 27.8536H77.1043L77.0796 27.7864C77.1539 27.7651 77.1929 27.7191 77.1999 27.6554C77.207 27.5916 77.2106 27.5102 77.2106 27.4111V24.8052H76.8742C76.7715 24.8052 76.6901 24.8123 76.6264 24.8229C76.5626 24.8371 76.5237 24.869 76.4989 24.9221L76.4316 24.8973V24.4229H78.4391V24.8973L78.3719 24.9221C78.3506 24.869 78.3081 24.8336 78.2444 24.8229C78.1807 24.8088 78.0992 24.8052 77.9966 24.8052H77.6602H77.6637Z" fill="white"/>
<path d="M81.4804 26.2498H79.9049V27.4182C79.9049 27.5208 79.912 27.6023 79.9226 27.6625C79.9367 27.7226 79.9686 27.7651 80.0253 27.7899L80.0005 27.8572H79.349L79.3242 27.7899C79.3986 27.7687 79.4375 27.7226 79.4446 27.6589C79.4517 27.5952 79.4552 27.5138 79.4552 27.4146V24.8654C79.4552 24.7663 79.4552 24.6849 79.4446 24.6211C79.4375 24.5574 79.3986 24.5114 79.3242 24.4901L79.349 24.4229H80.0005L80.0253 24.4901C79.9721 24.5114 79.9367 24.5539 79.9226 24.6176C79.9084 24.6778 79.9049 24.7592 79.9049 24.8619V25.8709H81.4804V24.869C81.4804 24.7698 81.4804 24.6884 81.4698 24.6247C81.4627 24.5609 81.4238 24.5149 81.3494 24.4937L81.3742 24.4264H82.0257L82.0504 24.4937C81.9973 24.5149 81.9619 24.5574 81.9478 24.6211C81.9336 24.6813 81.9301 24.7627 81.9301 24.8654V27.4217C81.9301 27.5244 81.9371 27.6058 81.9478 27.666C81.9619 27.7262 81.9938 27.7687 82.0504 27.7935L82.0257 27.8607H81.3742L81.3494 27.7935C81.4238 27.7722 81.4627 27.7262 81.4698 27.6625C81.4769 27.5987 81.4804 27.5173 81.4804 27.4182V26.2533V26.2498Z" fill="white"/>
<path d="M86.7559 26.1505C86.7559 26.3948 86.7063 26.625 86.6107 26.8409C86.5116 27.0569 86.3841 27.2481 86.2177 27.4074C86.0513 27.5703 85.8566 27.6978 85.6335 27.7898C85.4105 27.8819 85.1733 27.9314 84.9219 27.9314C84.6705 27.9314 84.4298 27.8854 84.2103 27.7898C83.9872 27.6978 83.7925 27.5703 83.6261 27.4074C83.4632 27.2446 83.3322 27.0569 83.2331 26.8409C83.1339 26.625 83.0879 26.3948 83.0879 26.1505C83.0879 25.9062 83.1375 25.6761 83.2331 25.4601C83.3322 25.2441 83.4596 25.053 83.6261 24.8936C83.7925 24.7308 83.9872 24.6033 84.2103 24.5113C84.4333 24.4192 84.6705 24.3696 84.9219 24.3696C85.1733 24.3696 85.4105 24.4157 85.6335 24.5113C85.8566 24.6033 86.0513 24.7308 86.2177 24.8936C86.3806 25.0565 86.5116 25.2441 86.6107 25.4601C86.7099 25.6761 86.7559 25.9062 86.7559 26.1505ZM86.2956 26.1434C86.2956 25.9523 86.2602 25.7752 86.1859 25.6053C86.1115 25.4353 86.0124 25.2866 85.8885 25.1592C85.7646 25.0317 85.6159 24.9326 85.4494 24.8582C85.283 24.7839 85.1025 24.7449 84.9077 24.7449C84.713 24.7449 84.536 24.7839 84.366 24.8582C84.1996 24.9326 84.0509 25.0317 83.927 25.1592C83.8031 25.2866 83.7039 25.4353 83.6296 25.6053C83.5552 25.7752 83.5198 25.9558 83.5198 26.1434C83.5198 26.3311 83.5588 26.5152 83.6296 26.6816C83.7039 26.8516 83.8031 27.0003 83.927 27.1277C84.0509 27.2552 84.1996 27.3543 84.366 27.4287C84.5324 27.503 84.713 27.542 84.9077 27.542C85.1025 27.542 85.2795 27.5066 85.4494 27.4287C85.6194 27.3508 85.7646 27.2552 85.8885 27.1277C86.0124 27.0003 86.1115 26.8516 86.1859 26.6816C86.2602 26.5117 86.2956 26.3311 86.2956 26.1434Z" fill="white"/>
<path d="M90.2894 27.8572H87.8217L87.7969 27.7899C87.8712 27.7687 87.9102 27.7226 87.9173 27.6554C87.9243 27.5952 87.9279 27.5173 87.9279 27.4217V24.8654C87.9279 24.7663 87.9279 24.6849 87.9173 24.6211C87.9102 24.5574 87.8712 24.5114 87.7969 24.4901L87.8217 24.4229H88.4731L88.4979 24.4901C88.4448 24.5114 88.4094 24.5539 88.3952 24.6176C88.3811 24.6778 88.3775 24.7592 88.3775 24.8619V27.4783H89.8433C89.9425 27.4783 90.0239 27.4783 90.0912 27.4677C90.1584 27.4571 90.2009 27.4217 90.2222 27.3473L90.2894 27.3721V27.8572Z" fill="white"/>
<path d="M91.3512 24.8654C91.3512 24.7663 91.3512 24.6849 91.3406 24.6211C91.3335 24.5574 91.2946 24.5114 91.2202 24.4901L91.245 24.4229H91.8965L91.9212 24.4901C91.8681 24.5114 91.8327 24.5539 91.8186 24.6176C91.8044 24.6778 91.8009 24.7592 91.8009 24.8619V27.4182C91.8009 27.5208 91.8079 27.6023 91.8186 27.6625C91.8327 27.7226 91.8646 27.7651 91.9212 27.7899L91.8965 27.8572H91.245L91.2202 27.7899C91.2946 27.7687 91.3335 27.7226 91.3406 27.6589C91.3477 27.5952 91.3512 27.5138 91.3512 27.4146V24.8654Z" fill="white"/>
<path d="M95.5928 25.1558C95.5432 25.0495 95.4441 24.9575 95.2989 24.8725C95.1538 24.7875 94.9732 24.7451 94.7572 24.7451C94.5412 24.7451 94.3607 24.7805 94.1943 24.8477C94.0279 24.915 93.8862 25.0106 93.7659 25.131C93.6526 25.2478 93.5605 25.3859 93.5003 25.5488C93.4366 25.7116 93.4083 25.8851 93.4083 26.0728C93.4083 26.3029 93.4437 26.5082 93.5145 26.6817C93.5853 26.8552 93.6844 27.0004 93.8084 27.1208C93.9323 27.2411 94.0774 27.3297 94.2438 27.3898C94.4103 27.45 94.5873 27.4784 94.7785 27.4784C94.8209 27.4784 94.8705 27.4784 94.9272 27.4677C94.9838 27.4607 95.0475 27.4465 95.1148 27.4252C95.1821 27.404 95.2494 27.3721 95.3166 27.3297C95.3839 27.2872 95.4512 27.2305 95.5149 27.1562L95.568 27.1845V27.8891L95.5291 27.9138L95.4512 27.8466C95.3556 27.8714 95.2529 27.8891 95.1396 27.8997C95.0263 27.9103 94.9307 27.9138 94.8457 27.9138C94.6262 27.9138 94.4067 27.8855 94.1837 27.8253C93.9606 27.7651 93.7588 27.666 93.5782 27.5279C93.3941 27.3898 93.2454 27.2022 93.1286 26.965C93.0117 26.7278 92.9551 26.4339 92.9551 26.0834C92.9551 25.8462 92.9976 25.6231 93.079 25.4142C93.1604 25.2053 93.2808 25.0248 93.4366 24.8725C93.5924 24.7167 93.78 24.5963 94.0066 24.5078C94.2332 24.4193 94.4881 24.3733 94.7714 24.3733C94.9342 24.3733 95.0759 24.3839 95.1927 24.4052C95.3095 24.4264 95.4051 24.4476 95.476 24.4653L95.5963 24.3662L95.653 24.3804V25.1416L95.5893 25.1593L95.5928 25.1558Z" fill="white"/>
<path d="M101.138 25.1558C101.084 25.0495 100.989 24.9575 100.844 24.8725C100.699 24.7875 100.518 24.7451 100.302 24.7451C100.086 24.7451 99.9055 24.7805 99.7391 24.8477C99.5727 24.915 99.431 25.0106 99.3107 25.131C99.1938 25.2478 99.1053 25.3859 99.0451 25.5488C98.9814 25.7116 98.9495 25.8851 98.9495 26.0728C98.9495 26.3029 98.9849 26.5082 99.0557 26.6817C99.1301 26.8552 99.2257 27.0004 99.3496 27.1208C99.4735 27.2411 99.6222 27.3297 99.7851 27.3898C99.9515 27.45 100.129 27.4784 100.32 27.4784C100.362 27.4784 100.412 27.4784 100.468 27.4677C100.525 27.4607 100.589 27.4465 100.656 27.4252C100.723 27.404 100.791 27.3721 100.858 27.3297C100.925 27.2872 100.992 27.2305 101.053 27.1562L101.106 27.1845V27.8891L101.067 27.9138L100.989 27.8466C100.893 27.8714 100.791 27.8891 100.677 27.8997C100.568 27.9103 100.468 27.9138 100.383 27.9138C100.164 27.9138 99.9444 27.8855 99.7249 27.8253C99.5019 27.7651 99.3 27.666 99.1159 27.5279C98.9318 27.3898 98.7831 27.2022 98.6663 26.965C98.5494 26.7278 98.4893 26.4339 98.4893 26.0834C98.4893 25.8462 98.5317 25.6231 98.6132 25.4142C98.6946 25.2053 98.815 25.0248 98.9708 24.8725C99.123 24.7167 99.3142 24.5963 99.5408 24.5078C99.7674 24.4193 100.022 24.3733 100.306 24.3733C100.468 24.3733 100.61 24.3839 100.727 24.4052C100.844 24.4264 100.939 24.4476 101.01 24.4653L101.131 24.3662L101.187 24.3804V25.1416L101.123 25.1593L101.138 25.1558Z" fill="white"/>
<path d="M104.381 26.2498H102.805V27.4182C102.805 27.5208 102.812 27.6023 102.823 27.6625C102.837 27.7226 102.869 27.7651 102.926 27.7899L102.901 27.8572H102.249L102.225 27.7899C102.299 27.7687 102.338 27.7226 102.345 27.6589C102.352 27.5952 102.356 27.5138 102.356 27.4146V24.8654C102.356 24.7663 102.356 24.6849 102.345 24.6211C102.338 24.5574 102.299 24.5114 102.225 24.4901L102.249 24.4229H102.901L102.926 24.4901C102.873 24.5114 102.837 24.5539 102.823 24.6176C102.809 24.6778 102.805 24.7592 102.805 24.8619V25.8709H104.381V24.869C104.381 24.7698 104.381 24.6884 104.37 24.6247C104.363 24.5609 104.324 24.5149 104.25 24.4937L104.275 24.4264H104.93L104.954 24.4937C104.901 24.5149 104.866 24.5574 104.855 24.6211C104.841 24.6813 104.838 24.7627 104.838 24.8654V27.4217C104.838 27.5244 104.845 27.6058 104.855 27.666C104.869 27.7262 104.901 27.7687 104.954 27.7935L104.93 27.8607H104.275L104.25 27.7935C104.324 27.7722 104.363 27.7262 104.37 27.6625C104.377 27.5987 104.381 27.5173 104.381 27.4182V26.2533V26.2498Z" fill="white"/>
<path d="M108.056 24.8654C108.056 24.7663 108.056 24.6849 108.045 24.6211C108.038 24.5574 107.999 24.5114 107.925 24.4901L107.95 24.4229H108.601L108.626 24.4901C108.573 24.5114 108.537 24.5539 108.523 24.6176C108.509 24.6778 108.505 24.7592 108.505 24.8619V26.6357C108.505 27.0358 108.424 27.3296 108.254 27.5208C108.028 27.7828 107.723 27.9138 107.337 27.9138C106.951 27.9138 106.671 27.7793 106.448 27.5067C106.257 27.2978 106.169 27.0075 106.179 26.6357V24.8654C106.179 24.7663 106.179 24.6849 106.169 24.6211C106.162 24.5574 106.123 24.5114 106.048 24.4901L106.073 24.4229H106.725L106.749 24.4901C106.696 24.5114 106.661 24.5539 106.647 24.6176C106.633 24.6778 106.629 24.7592 106.629 24.8619V26.6357C106.622 26.9402 106.682 27.1562 106.806 27.2872C106.955 27.45 107.128 27.5315 107.334 27.5315C107.553 27.5315 107.727 27.45 107.858 27.2872C107.985 27.1385 108.049 26.926 108.049 26.6463V24.869L108.056 24.8654Z" fill="white"/>
<path d="M110.315 27.418C110.315 27.5207 110.322 27.6022 110.332 27.6623C110.347 27.7225 110.379 27.765 110.432 27.7898L110.407 27.8571H109.752L109.727 27.7898C109.801 27.7686 109.84 27.7225 109.847 27.6588C109.855 27.5951 109.858 27.5136 109.858 27.4145V24.8193C109.858 24.7201 109.851 24.6387 109.837 24.5714C109.823 24.5042 109.787 24.4617 109.731 24.444L109.755 24.3767L110.155 24.4298C110.205 24.4121 110.29 24.3944 110.4 24.3803C110.513 24.3661 110.63 24.359 110.761 24.3555C111.115 24.3555 111.395 24.4511 111.596 24.6387C111.798 24.8264 111.897 25.0742 111.897 25.3787C111.897 25.577 111.862 25.7327 111.791 25.8567C111.72 25.977 111.632 26.0762 111.522 26.1434C111.823 26.3205 112.053 26.5506 112.213 26.8303C112.372 27.11 112.478 27.411 112.535 27.7261L112.655 27.7969L112.63 27.8571H111.997C111.997 27.7119 111.982 27.5738 111.951 27.4499C111.919 27.326 111.873 27.2092 111.827 27.1136C111.781 27.018 111.735 26.9401 111.689 26.8763C111.639 26.8162 111.607 26.7737 111.586 26.7489C111.476 26.6108 111.331 26.494 111.15 26.3913C110.97 26.2886 110.75 26.2355 110.488 26.2355V26.0691C111.126 26.0585 111.441 25.8283 111.441 25.3751C111.441 25.1273 111.37 24.9609 111.232 24.8724C111.094 24.7839 110.906 24.7414 110.676 24.7414C110.598 24.7414 110.527 24.752 110.463 24.7697C110.4 24.7874 110.347 24.8087 110.311 24.8299V27.4145L110.315 27.418Z" fill="white"/>
<path d="M116.167 25.1558C116.114 25.0495 116.018 24.9575 115.873 24.8725C115.728 24.7875 115.547 24.7451 115.331 24.7451C115.115 24.7451 114.935 24.7805 114.768 24.8477C114.602 24.915 114.46 25.0106 114.34 25.131C114.223 25.2478 114.135 25.3859 114.074 25.5488C114.011 25.7116 113.979 25.8851 113.979 26.0728C113.979 26.3029 114.014 26.5082 114.085 26.6817C114.159 26.8552 114.255 27.0004 114.379 27.1208C114.503 27.2411 114.652 27.3297 114.814 27.3898C114.981 27.45 115.158 27.4784 115.349 27.4784C115.392 27.4784 115.441 27.4784 115.498 27.4677C115.554 27.4607 115.618 27.4465 115.685 27.4252C115.753 27.404 115.82 27.3721 115.887 27.3297C115.954 27.2872 116.022 27.2305 116.082 27.1562L116.135 27.1845V27.8891L116.096 27.9138L116.018 27.8466C115.923 27.8714 115.82 27.8891 115.707 27.8997C115.597 27.9103 115.498 27.9138 115.413 27.9138C115.193 27.9138 114.974 27.8855 114.754 27.8253C114.531 27.7651 114.329 27.666 114.145 27.5279C113.961 27.3898 113.812 27.2022 113.696 26.965C113.579 26.7278 113.519 26.4339 113.519 26.0834C113.519 25.8462 113.561 25.6231 113.642 25.4142C113.724 25.2053 113.844 25.0248 114 24.8725C114.152 24.7167 114.344 24.5963 114.57 24.5078C114.797 24.4193 115.052 24.3733 115.335 24.3733C115.498 24.3733 115.639 24.3839 115.756 24.4052C115.873 24.4264 115.969 24.4476 116.039 24.4653L116.16 24.3662L116.216 24.3804V25.1416L116.153 25.1593L116.167 25.1558Z" fill="white"/>
<path d="M119.407 26.2498H117.831V27.4182C117.831 27.5208 117.838 27.6023 117.849 27.6625C117.863 27.7226 117.895 27.7651 117.952 27.7899L117.927 27.8572H117.275L117.25 27.7899C117.325 27.7687 117.364 27.7226 117.371 27.6589C117.378 27.5952 117.381 27.5138 117.381 27.4146V24.8654C117.381 24.7663 117.381 24.6849 117.371 24.6211C117.364 24.5574 117.325 24.5114 117.25 24.4901L117.275 24.4229H117.927L117.952 24.4901C117.898 24.5114 117.863 24.5539 117.849 24.6176C117.835 24.6778 117.831 24.7592 117.831 24.8619V25.8709H119.407V24.869C119.407 24.7698 119.407 24.6884 119.396 24.6247C119.389 24.5609 119.35 24.5149 119.276 24.4937L119.3 24.4264H119.955L119.98 24.4937C119.927 24.5149 119.892 24.5574 119.881 24.6211C119.867 24.6813 119.863 24.7627 119.863 24.8654V27.4217C119.863 27.5244 119.871 27.6058 119.881 27.666C119.895 27.7262 119.927 27.7687 119.98 27.7935L119.955 27.8607H119.3L119.276 27.7935C119.35 27.7722 119.389 27.7262 119.396 27.6625C119.403 27.5987 119.407 27.5173 119.407 27.4182V26.2533V26.2498Z" fill="white"/>
</svg>
