<svg xmlns="http://www.w3.org/2000/svg" width="80" height="80" viewBox="0 0 80 80" fill="none">
  <g clip-path="url(#clip0_14618_27973)">
    <ellipse cx="40.1332" cy="40.0008" rx="23.6" ry="39.2" fill="#AE3059"/>
    <path d="M0 40C0 17.907 17.907 0 40 0C62.093 0 80 17.907 80 40C80 62.093 62.093 80 40 80C17.907 80 0 62.093 0 40ZM13.0698 13.0698C6.18605 19.969 1.92248 29.4884 1.92248 40C1.92248 50.5116 6.18605 60.031 13.0853 66.9302C19.9845 73.8295 29.4884 78.0775 40.0155 78.0775C50.5426 78.0775 60.0465 73.8139 66.9457 66.9302C73.845 60.031 78.093 50.5271 78.093 40C78.093 29.4729 73.8295 19.969 66.9457 13.0698C60.0465 6.17054 50.5426 1.92248 40.0155 1.92248C29.4884 1.92248 19.9845 6.18605 13.0853 13.0698" fill="#EAEBEC"/>
    <path d="M40.0008 80C30.962 80 22.7915 75.4574 16.931 68.2171C11.0705 60.9612 7.47363 50.9922 7.47363 40.0155C7.47363 29.0233 11.0705 19.0543 16.931 11.7985C22.7915 4.54264 30.962 0 40.0008 0C49.055 0 57.2101 4.54264 63.0705 11.7829C68.931 19.0388 72.5279 29.0078 72.5279 40C72.5279 50.9922 68.931 60.9612 63.0705 68.2016C57.2101 75.4419 49.055 79.9845 40.0008 79.9845V80ZM18.4194 12.9922C12.8535 19.876 9.38061 29.4264 9.38061 40C9.38061 50.5736 12.8535 60.124 18.4194 67.0078C23.9853 73.8915 31.6132 78.0775 40.0008 78.093C48.3884 78.093 56.0163 73.8915 61.5822 67.0078C67.1481 60.124 70.6209 50.5736 70.6209 40C70.6209 29.4264 67.1481 19.876 61.5822 12.9922C56.0163 6.10853 48.3884 1.90698 40.0008 1.90698C31.6132 1.90698 23.9853 6.10853 18.4194 12.9922Z" fill="#EAEBEC"/>
    <path d="M34.8688 25.8552V34.8474H25.9076V34.8785C25.1169 34.6459 22.5897 33.8397 22.3417 33.3436C22.7293 34.2118 22.9308 36.5374 22.9463 39.3436H39.3649V22.925C36.5587 22.894 34.2176 22.7079 33.3494 22.3203C33.83 22.5684 34.6207 25.0335 34.8688 25.8707M57.6905 33.3436C57.4425 33.8397 54.9618 34.6304 54.1401 34.8785L45.1479 34.8629V25.8707H45.1324C45.3649 25.049 46.1711 22.5839 46.6673 22.3203C45.799 22.7079 43.4735 22.9095 40.6673 22.925V39.3436H57.0859C57.1169 36.5374 57.3029 34.2118 57.6905 33.3436ZM57.0859 40.6459H40.6673V57.0645C43.4735 57.0955 45.8145 57.2816 46.6673 57.6692C46.1711 57.4056 45.3649 54.8785 45.1324 54.0878H45.1634V45.1265H54.1556C54.9928 45.3591 57.4425 46.1498 57.706 46.6304C57.3184 45.7622 57.1169 43.4366 57.1014 40.6304M22.3262 46.6614C22.5897 46.1653 25.1014 45.3746 25.9076 45.142H34.8688V54.1033C34.6362 54.9095 33.83 57.4211 33.3494 57.6847C34.2176 57.2971 36.5432 57.0955 39.3649 57.08V40.6614H22.9463C22.9153 43.4676 22.7293 45.7932 22.3417 46.6614" fill="#EAEBEC"/>
    <path d="M22.14 68.1085C17.6593 60.8527 14.9462 50.9302 14.9307 40C14.9307 29.0543 17.6593 19.1473 22.14 11.8915C26.6051 4.65116 32.8997 0 40.0004 0C47.1012 0 53.3958 4.65116 57.8609 11.8915C62.3415 19.1473 65.0547 29.0543 65.0702 40C65.0702 50.9457 62.3415 60.8527 57.8609 68.1085C53.3958 75.3488 47.1012 80 40.0004 80C32.8997 80 26.6051 75.3488 22.14 68.1085ZM56.233 67.1008C60.4811 60.2171 63.1477 50.6202 63.1477 40C63.1477 29.3798 60.4811 19.7829 56.233 12.8992C51.9694 6 46.2175 1.90698 40.0004 1.92248C33.7989 1.92248 28.0314 6.0155 23.7679 12.8992C19.5198 19.7829 16.8531 29.3798 16.8531 40C16.8531 50.6202 19.5198 60.2326 23.7679 67.1008C28.0314 74 33.7834 78.093 40.0004 78.0775C46.202 78.0775 51.9694 73.9845 56.233 67.1008Z" fill="#EAEBEC"/>
  </g>
  <defs>
    <clipPath id="clip0_14618_27973">
      <rect width="80" height="80" fill="white"/>
    </clipPath>
  </defs>
</svg>