<svg
xmlns="http://www.w3.org/2000/svg"
width="64"
height="64"
viewBox="0 0 64 64"
fill="none"
>
<path
d="M32 8C45.2548 8 56 18.7452 56 32C56 45.2548 45.2548 56 32 56C18.7452 56 8 45.2548 8 32C8 18.7452 18.7452 8 32 8ZM41.4141 22.5859C40.633 21.8049 39.367 21.8049 38.5859 22.5859L32 29.1719L25.4141 22.5859C24.633 21.8049 23.367 21.8049 22.5859 22.5859C21.8049 23.367 21.8049 24.633 22.5859 25.4141L29.1719 32L22.5859 38.5859C21.8049 39.367 21.8049 40.633 22.5859 41.4141C23.367 42.1951 24.633 42.1951 25.4141 41.4141L32 34.8281L38.5859 41.4141C39.367 42.1951 40.633 42.1951 41.4141 41.4141C42.1951 40.633 42.1951 39.367 41.4141 38.5859L34.8281 32L41.4141 25.4141C42.1951 24.633 42.1951 23.367 41.4141 22.5859Z"
fill="#CFD2D5"
/>
</svg>